<svg width="32" height="32" viewBox="0 0 32 32" fill="none" xmlns="http://www.w3.org/2000/svg">
<path opacity="0.4" d="M17.3335 14.667H23.7335C25.227 14.667 25.9737 14.667 26.5441 14.9576C27.0459 15.2133 27.4539 15.6213 27.7095 16.123C28.0002 16.6934 28.0002 17.4402 28.0002 18.9337V28.0003" stroke="#18181C" stroke-width="2.66667" stroke-linecap="round" stroke-linejoin="round"/>
<path d="M17.3332 28V8.26667C17.3332 6.77319 17.3332 6.02646 17.0425 5.45603C16.7869 4.95426 16.3789 4.54631 15.8771 4.29065C15.3067 4 14.56 4 13.0665 4H8.2665C6.77303 4 6.02629 4 5.45586 4.29065C4.9541 4.54631 4.54615 4.95426 4.29049 5.45603C3.99984 6.02646 3.99984 6.77319 3.99984 8.26667V28M29.3332 28H2.6665M8.6665 9.33333H12.6665M8.6665 14.6667H12.6665M8.6665 20H12.6665" stroke="#18181C" stroke-width="2.66667" stroke-linecap="round" stroke-linejoin="round"/>
</svg>
