<svg width="14" height="15" viewBox="0 0 14 15" fill="none" xmlns="http://www.w3.org/2000/svg">
<path fill-rule="evenodd" clip-rule="evenodd" d="M6.65131 0.890945C6.8795 0.829158 7.12003 0.829158 7.34823 0.890945C7.61314 0.962671 7.83617 1.13778 8.01418 1.27753C9.54977 2.48312 11.0949 3.67652 12.6373 4.87345C12.8884 5.06831 13.1096 5.23998 13.2744 5.46285C13.4191 5.65843 13.5268 5.87877 13.5924 6.11304C13.6671 6.37999 13.6668 6.65999 13.6665 6.97782C13.6648 8.61601 13.6664 10.2542 13.6664 11.8924C13.6664 12.2438 13.6665 12.547 13.6461 12.7967C13.6245 13.0603 13.577 13.3224 13.4484 13.5747C13.2567 13.951 12.9507 14.257 12.5744 14.4487C12.3222 14.5772 12.06 14.6248 11.7965 14.6463C11.2621 14.69 10.7201 14.6664 10.1843 14.6667C10.1049 14.6667 10.0101 14.6668 9.92655 14.6599C9.82974 14.652 9.69107 14.6317 9.54578 14.5577C9.35761 14.4618 9.20463 14.3088 9.10876 14.1207C9.03473 13.9754 9.01443 13.8367 9.00652 13.7399C8.9997 13.6564 8.99973 13.5615 8.99976 13.4821L9.00502 9.75129C9.00554 9.37745 9.00581 9.19052 8.93322 9.04771C8.86937 8.92209 8.76736 8.81994 8.64183 8.75591C8.49912 8.68312 8.3122 8.68312 7.93835 8.68312H6.07178C5.69889 8.68312 5.51245 8.68312 5.36994 8.75565C5.24459 8.81945 5.14263 8.92127 5.07865 9.04653C5.00591 9.18893 5.00565 9.37537 5.00511 9.74826L4.99977 13.4821C4.9998 13.5615 4.99984 13.6564 4.99301 13.7399C4.9851 13.8367 4.96481 13.9754 4.89077 14.1207C4.7949 14.3088 4.64192 14.4618 4.45376 14.5577C4.30846 14.6317 4.1698 14.652 4.07299 14.6599C3.98944 14.6668 3.89461 14.6667 3.8152 14.6667C3.27941 14.6664 2.73743 14.69 2.20308 14.6463C1.93952 14.6248 1.67737 14.5772 1.42512 14.4487C1.0488 14.257 0.742835 13.951 0.551088 13.5747C0.422558 13.3224 0.375014 13.0603 0.35348 12.7967C0.333078 12.547 0.333088 12.2438 0.3331 11.8924C0.3331 10.2542 0.334825 8.61601 0.333054 6.97782C0.33271 6.65999 0.332408 6.37999 0.407128 6.11304C0.472702 5.87877 0.580466 5.65843 0.725128 5.46285C0.889966 5.23998 1.11118 5.06831 1.36226 4.87346C2.90455 3.67657 4.44984 2.48309 5.98535 1.27753C6.16336 1.13778 6.38639 0.962671 6.65131 0.890945Z" fill="#949AE5"/>
</svg>
