<svg width="16" height="16" viewBox="0 0 16 16" fill="none" xmlns="http://www.w3.org/2000/svg">
<path fill-rule="evenodd" clip-rule="evenodd" d="M5.85755 9.66669C7.28599 9.66701 8.71443 9.66701 10.1429 9.66669C10.6273 9.66659 10.9574 9.66652 11.2457 9.71735C12.6257 9.96068 13.7062 11.0412 13.9496 12.4212C14.0004 12.7095 14.0003 13.0396 14.0002 13.524C14.0002 13.6296 14.0034 13.7359 13.985 13.8404C13.912 14.2544 13.5879 14.5785 13.1739 14.6515C13.0831 14.6675 12.9874 14.667 12.9399 14.6668C9.64711 14.6491 6.35332 14.6491 3.06056 14.6668C3.01298 14.667 2.91735 14.6675 2.82657 14.6515C2.41256 14.5785 2.08841 14.2544 2.01541 13.8404C1.99699 13.7359 2.00023 13.6296 2.0002 13.524C2.0001 13.0396 2.00003 12.7095 2.05086 12.4212C2.29419 11.0412 3.37468 9.96068 4.75472 9.71735C5.04299 9.66652 5.3731 9.66659 5.85755 9.66669Z" fill="#949AE5"/>
<path fill-rule="evenodd" clip-rule="evenodd" d="M4.33355 5.00004C4.33355 2.975 5.97517 1.33337 8.00021 1.33337C10.0253 1.33337 11.6669 2.975 11.6669 5.00004C11.6669 7.02508 10.0253 8.66671 8.00021 8.66671C5.97517 8.66671 4.33355 7.02508 4.33355 5.00004Z" fill="#949AE5"/>
</svg>
