<svg width="16" height="16" viewBox="0 0 16 16" fill="none" xmlns="http://www.w3.org/2000/svg">
<path d="M5.17214 1.33331H6.66634C7.03453 1.33331 7.33301 1.63179 7.33301 1.99998C7.33301 2.36817 7.03453 2.66665 6.66634 2.66665H5.19968C4.62862 2.66665 4.24043 2.66717 3.94037 2.69168C3.64809 2.71556 3.49862 2.75885 3.39435 2.81197C3.14347 2.9398 2.9395 3.14378 2.81167 3.39466C2.75854 3.49893 2.71526 3.6484 2.69138 3.94067C2.66686 4.24073 2.66634 4.62893 2.66634 5.19998V10.8C2.66634 11.371 2.66686 11.7592 2.69138 12.0593C2.71526 12.3516 2.75854 12.501 2.81167 12.6053C2.9395 12.8562 3.14347 13.0602 3.39435 13.188C3.49862 13.2411 3.64809 13.2844 3.94037 13.3083C4.24043 13.3328 4.62862 13.3333 5.19968 13.3333H10.7997C11.3707 13.3333 11.7589 13.3328 12.059 13.3083C12.3513 13.2844 12.5007 13.2411 12.605 13.188C12.8559 13.0602 13.0599 12.8562 13.1877 12.6053C13.2408 12.501 13.2841 12.3516 13.308 12.0593C13.3325 11.7592 13.333 11.371 13.333 10.8V9.33331C13.333 8.96512 13.6315 8.66665 13.9997 8.66665C14.3679 8.66665 14.6663 8.96512 14.6663 9.33331V10.8275C14.6664 11.3642 14.6664 11.8071 14.6369 12.1679C14.6063 12.5426 14.5406 12.8871 14.3757 13.2106C14.12 13.7124 13.7121 14.1203 13.2103 14.376C12.8868 14.5409 12.5423 14.6066 12.1676 14.6372C11.8068 14.6667 11.3639 14.6667 10.8272 14.6666H5.17213C4.63549 14.6667 4.19258 14.6667 3.83179 14.6372C3.45706 14.6066 3.11259 14.5409 2.78903 14.376C2.28727 14.1203 1.87932 13.7124 1.62366 13.2106C1.4588 12.8871 1.39309 12.5426 1.36247 12.1679C1.33299 11.8071 1.333 11.3642 1.33301 10.8275V5.17245C1.333 4.63581 1.33299 4.19289 1.36247 3.8321C1.39309 3.45737 1.4588 3.1129 1.62366 2.78934C1.87932 2.28757 2.28727 1.87963 2.78903 1.62396C3.11259 1.4591 3.45706 1.39339 3.83179 1.36278C4.19259 1.3333 4.6355 1.33331 5.17214 1.33331Z" fill="#949AE5"/>
<path d="M9.33301 1.99998C9.33301 1.63179 9.63148 1.33331 9.99967 1.33331H13.9997C14.3679 1.33331 14.6663 1.63179 14.6663 1.99998L14.6663 5.99998C14.6663 6.36817 14.3679 6.66665 13.9997 6.66665C13.6315 6.66665 13.333 6.36817 13.333 5.99998L13.333 3.60946L8.47108 8.47138C8.21073 8.73173 7.78862 8.73173 7.52827 8.47138C7.26792 8.21103 7.26792 7.78893 7.52827 7.52858L12.3902 2.66665H9.99967C9.63148 2.66665 9.33301 2.36817 9.33301 1.99998Z" fill="#949AE5"/>
</svg>
