<svg width="14" height="14" viewBox="0 0 14 14" fill="none" xmlns="http://www.w3.org/2000/svg">
<path fill-rule="evenodd" clip-rule="evenodd" d="M2.33301 1.66665C1.96482 1.66665 1.66634 1.96512 1.66634 2.33331C1.66634 2.7015 1.96482 2.99998 2.33301 2.99998L11.6663 2.99998C12.7709 2.99998 13.6663 3.89541 13.6663 4.99998V11.6666C13.6663 12.7712 12.7709 13.6666 11.6663 13.6666H2.33301C1.22844 13.6666 0.333008 12.7712 0.333008 11.6666V2.33331C0.333008 1.22874 1.22844 0.333313 2.33301 0.333313H10.333C10.7012 0.333313 10.9997 0.63179 10.9997 0.99998C10.9997 1.36817 10.7012 1.66665 10.333 1.66665H2.33301ZM9.99967 7.33331C9.44739 7.33331 8.99967 7.78103 8.99967 8.33331C8.99967 8.8856 9.44739 9.33331 9.99967 9.33331C10.552 9.33331 10.9997 8.8856 10.9997 8.33331C10.9997 7.78103 10.552 7.33331 9.99967 7.33331Z" fill="#949AE5"/>
</svg>
