<svg width="16" height="16" viewBox="0 0 16 16" fill="none" xmlns="http://www.w3.org/2000/svg">
<path fill-rule="evenodd" clip-rule="evenodd" d="M8.00033 0.666626C12.0504 0.666626 15.3337 3.94987 15.3337 7.99996C15.3337 12.05 12.0504 15.3333 8.00033 15.3333C3.95024 15.3333 0.666992 12.05 0.666992 7.99996C0.666992 3.94987 3.95024 0.666626 8.00033 0.666626ZM2.03694 7.33329C2.31233 4.84212 4.11286 2.81061 6.48413 2.19318C5.46639 3.72291 4.84986 5.49117 4.70039 7.33329H2.03694ZM2.03694 8.66663C2.31233 11.1578 4.11286 13.1893 6.48413 13.8067C5.46639 12.277 4.84986 10.5087 4.70039 8.66663H2.03694ZM9.51652 13.8067C11.8878 13.1893 13.6883 11.1578 13.9637 8.66663H11.3003C11.1508 10.5087 10.5343 12.277 9.51652 13.8067ZM13.9637 7.33329H11.3003C11.1508 5.49117 10.5343 3.72291 9.51652 2.19318C11.8878 2.81061 13.6883 4.84212 13.9637 7.33329ZM8.00033 2.36716C9.11344 3.80125 9.79447 5.52451 9.96193 7.33329H6.03872C6.20618 5.52451 6.88721 3.80125 8.00033 2.36716ZM8.00032 13.6328C6.88721 12.1987 6.20618 10.4754 6.03872 8.66663H9.96193C9.79447 10.4754 9.11344 12.1987 8.00032 13.6328Z" fill="#CBEEF5"/>
</svg>
