<svg width="16" height="16" viewBox="0 0 16 16" fill="none" xmlns="http://www.w3.org/2000/svg">
<path d="M5.87642 1.99992C5.25795 1.9995 4.7917 1.99919 4.3669 2.14571C3.99323 2.2746 3.65289 2.48494 3.3705 2.76152C3.04947 3.07595 2.84124 3.49311 2.56503 4.04647C2.22608 4.72439 1.67739 5.82384 1.30893 6.56233C1.18163 6.81748 1.11798 6.94506 1.13338 7.04888C1.14683 7.13953 1.19702 7.22066 1.27213 7.27316C1.35815 7.33329 1.50088 7.33329 1.78633 7.33329H3.92165C4.63097 7.33329 5.27941 7.73405 5.59662 8.36848C5.68798 8.5512 5.87474 8.66663 6.07903 8.66663H9.92165C10.1259 8.66663 10.3127 8.5512 10.4041 8.36848C10.7213 7.73405 11.3697 7.33329 12.079 7.33329H14.2144C14.4998 7.33329 14.6426 7.33329 14.7286 7.27316C14.8037 7.22066 14.8539 7.13953 14.8673 7.04888C14.8827 6.94506 14.8191 6.81748 14.6918 6.56233C14.3233 5.82384 13.7746 4.7244 13.4357 4.04648C13.1595 3.49312 12.9512 3.07595 12.6302 2.76152C12.3478 2.48494 12.0075 2.2746 11.6338 2.14571C11.209 1.99919 10.7428 1.9995 10.1243 1.99992H5.87642Z" fill="#CBEEF5"/>
<path d="M15.3337 9.73304C15.3337 9.35987 15.3338 9.17329 15.2611 9.03067C15.1972 8.90524 15.0952 8.80321 14.9698 8.7393C14.8271 8.66663 14.6405 8.66663 14.2673 8.66663H12.079C11.8747 8.66663 11.688 8.78205 11.5966 8.96477C11.2794 9.5992 10.631 9.99996 9.92165 9.99996H6.07903C5.36971 9.99996 4.72127 9.5992 4.40405 8.96477C4.31269 8.78205 4.12594 8.66663 3.92165 8.66663H1.73341C1.36018 8.66663 1.17356 8.66663 1.03095 8.7393C0.905527 8.80321 0.803497 8.90525 0.7396 9.03067C0.666942 9.17329 0.666959 9.35987 0.666994 9.73303C0.667007 9.87563 0.667018 10.0182 0.667019 10.1608C0.66701 10.6975 0.667003 11.1404 0.696482 11.5012C0.727098 11.8759 0.792808 12.2204 0.957669 12.5439C1.21333 13.0457 1.62128 13.4537 2.12304 13.7093C2.4466 13.8742 2.79107 13.9399 3.1658 13.9705C3.52659 14 3.9695 14 4.50614 14H11.4946C12.0312 14 12.4741 14 12.8349 13.9705C13.2096 13.9399 13.5541 13.8742 13.8777 13.7093C14.3794 13.4537 14.7874 13.0457 15.043 12.5439C15.2079 12.2204 15.2736 11.8759 15.3042 11.5012C15.3337 11.1404 15.3337 10.6975 15.3337 10.1608C15.3337 10.0182 15.3337 9.87565 15.3337 9.73304Z" fill="#CBEEF5"/>
</svg>
