<svg width="16" height="16" viewBox="0 0 16 16" fill="none" xmlns="http://www.w3.org/2000/svg">
<path d="M5.17214 1.33337H6.66634C7.03453 1.33337 7.33301 1.63185 7.33301 2.00004C7.33301 2.36823 7.03453 2.66671 6.66634 2.66671H5.19968C4.62862 2.66671 4.24043 2.66723 3.94037 2.69174C3.64809 2.71562 3.49862 2.75891 3.39435 2.81203C3.14347 2.93986 2.9395 3.14384 2.81167 3.39472C2.75854 3.49899 2.71526 3.64846 2.69138 3.94073C2.66686 4.24079 2.66634 4.62899 2.66634 5.20004V10.8C2.66634 11.3711 2.66686 11.7593 2.69138 12.0593C2.71526 12.3516 2.75854 12.5011 2.81167 12.6054C2.9395 12.8562 3.14347 13.0602 3.39435 13.188C3.49862 13.2412 3.64809 13.2845 3.94037 13.3083C4.24043 13.3329 4.62862 13.3334 5.19968 13.3334H10.7997C11.3707 13.3334 11.7589 13.3329 12.059 13.3083C12.3513 13.2845 12.5007 13.2412 12.605 13.188C12.8559 13.0602 13.0599 12.8562 13.1877 12.6054C13.2408 12.5011 13.2841 12.3516 13.308 12.0593C13.3325 11.7593 13.333 11.3711 13.333 10.8V9.33337C13.333 8.96518 13.6315 8.66671 13.9997 8.66671C14.3679 8.66671 14.6663 8.96518 14.6663 9.33337V10.8276C14.6664 11.3642 14.6664 11.8071 14.6369 12.1679C14.6063 12.5427 14.5406 12.8871 14.3757 13.2107C14.12 13.7124 13.7121 14.1204 13.2103 14.3761C12.8868 14.5409 12.5423 14.6066 12.1676 14.6372C11.8068 14.6667 11.3639 14.6667 10.8272 14.6667H5.17213C4.63549 14.6667 4.19258 14.6667 3.83179 14.6372C3.45706 14.6066 3.11259 14.5409 2.78903 14.3761C2.28727 14.1204 1.87932 13.7124 1.62366 13.2107C1.4588 12.8871 1.39309 12.5427 1.36247 12.1679C1.33299 11.8071 1.333 11.3642 1.33301 10.8276V5.17251C1.333 4.63587 1.33299 4.19295 1.36247 3.83216C1.39309 3.45743 1.4588 3.11296 1.62366 2.7894C1.87932 2.28763 2.28727 1.87969 2.78903 1.62402C3.11259 1.45916 3.45706 1.39345 3.83179 1.36284C4.19259 1.33336 4.6355 1.33337 5.17214 1.33337Z" fill="#CBEEF5"/>
<path d="M9.33301 2.00004C9.33301 1.63185 9.63148 1.33337 9.99967 1.33337H13.9997C14.3679 1.33337 14.6663 1.63185 14.6663 2.00004L14.6663 6.00004C14.6663 6.36823 14.3679 6.66671 13.9997 6.66671C13.6315 6.66671 13.333 6.36823 13.333 6.00004L13.333 3.60952L8.47108 8.47145C8.21073 8.7318 7.78862 8.7318 7.52827 8.47145C7.26792 8.2111 7.26792 7.78899 7.52827 7.52864L12.3902 2.66671H9.99967C9.63148 2.66671 9.33301 2.36823 9.33301 2.00004Z" fill="#CBEEF5"/>
</svg>
