<svg width="16" height="16" viewBox="0 0 16 16" fill="none" xmlns="http://www.w3.org/2000/svg">
<path fill-rule="evenodd" clip-rule="evenodd" d="M14.6663 4.66669V3.33335C14.6663 2.76539 14.3204 2.33041 13.9408 2.03126C13.5537 1.72618 13.0349 1.48059 12.4531 1.28668C11.2827 0.896551 9.70824 0.666687 7.99967 0.666687C6.29111 0.666687 4.71662 0.896551 3.54622 1.28668C2.9645 1.48059 2.44565 1.72618 2.05853 2.03126C1.67894 2.33041 1.33301 2.76539 1.33301 3.33335V4.66669C1.33301 5.23294 1.67514 5.66805 2.05438 5.96857C2.44028 6.27436 2.95776 6.52014 3.53856 6.71405C4.70707 7.10415 6.28183 7.33335 7.99967 7.33335C9.71752 7.33335 11.2923 7.10415 12.4608 6.71405C13.0416 6.52014 13.5591 6.27436 13.945 5.96857C14.3242 5.66805 14.6663 5.23294 14.6663 4.66669ZM2.66634 3.33353C2.66634 3.33353 2.66646 3.33725 2.66838 3.34355C2.67064 3.35098 2.67623 3.36565 2.68972 3.38764C2.71802 3.43374 2.77573 3.50304 2.88383 3.58824C3.10395 3.76171 3.46378 3.94709 3.96785 4.11511C4.96902 4.44884 6.39454 4.66669 7.99967 4.66669C9.60481 4.66669 11.0303 4.44884 12.0315 4.11511C12.5356 3.94709 12.8954 3.76171 13.1155 3.58824C13.2236 3.50304 13.2813 3.43374 13.3096 3.38764C13.3231 3.36565 13.3287 3.35098 13.331 3.34355C13.3329 3.33716 13.333 3.33335 13.333 3.33335C13.333 3.33335 13.3331 3.33006 13.331 3.32316C13.3287 3.31573 13.3231 3.30105 13.3096 3.27907C13.2813 3.23297 13.2236 3.16367 13.1155 3.07847C12.8954 2.905 12.5356 2.71962 12.0315 2.5516C11.0303 2.21787 9.60481 2.00002 7.99967 2.00002C6.39454 2.00002 4.96902 2.21787 3.96785 2.5516C3.46378 2.71962 3.10395 2.905 2.88383 3.07847C2.77573 3.16367 2.71802 3.23297 2.68972 3.27907C2.67623 3.30105 2.67064 3.31573 2.66838 3.32316C2.66633 3.32988 2.66634 3.33353 2.66634 3.33353Z" fill="#CBEEF5"/>
<path d="M14.3941 7.00002C14.3154 7.00002 14.2412 7.03473 14.1862 7.09102C14.1114 7.16749 14.032 7.23785 13.9509 7.30206C13.5646 7.60785 13.0466 7.85363 12.4652 8.04753C11.2956 8.43764 9.71923 8.66684 7.99967 8.66684C6.28011 8.66684 4.70377 8.43764 3.5341 8.04753C2.95271 7.85363 2.43472 7.60785 2.04843 7.30206C1.96731 7.23784 1.88789 7.16749 1.81315 7.09101C1.75813 7.03473 1.68393 7.00002 1.60522 7.00002C1.45488 7.00002 1.33301 7.12189 1.33301 7.27223V8.66669C1.33301 9.23294 1.67514 9.66805 2.05438 9.96857C2.44028 10.2744 2.95776 10.5201 3.53856 10.714C4.70707 11.1041 6.28183 11.3334 7.99967 11.3334C9.71752 11.3334 11.2923 11.1041 12.4608 10.714C13.0416 10.5201 13.5591 10.2744 13.945 9.96857C14.3242 9.66805 14.6663 9.23294 14.6663 8.66669V7.27224C14.6663 7.1219 14.5445 7.00002 14.3941 7.00002Z" fill="#CBEEF5"/>
<path d="M14.3941 11C14.3154 11 14.2412 11.0347 14.1862 11.091C14.1114 11.1675 14.032 11.2378 13.9509 11.3021C13.5646 11.6079 13.0466 11.8536 12.4652 12.0475C11.2956 12.4376 9.71923 12.6668 7.99967 12.6668C6.28011 12.6668 4.70377 12.4376 3.5341 12.0475C2.95271 11.8536 2.43472 11.6079 2.04843 11.3021C1.96731 11.2378 1.88789 11.1675 1.81315 11.091C1.75813 11.0347 1.68393 11 1.60522 11C1.45488 11 1.33301 11.1219 1.33301 11.2722V12.6667C1.33301 13.2329 1.67514 13.668 2.05438 13.9686C2.44028 14.2744 2.95776 14.5201 3.53856 14.714C4.70707 15.1041 6.28183 15.3334 7.99967 15.3334C9.71752 15.3334 11.2923 15.1041 12.4608 14.714C13.0416 14.5201 13.5591 14.2744 13.945 13.9686C14.3242 13.668 14.6663 13.2329 14.6663 12.6667V11.2722C14.6663 11.1219 14.5445 11 14.3941 11Z" fill="#CBEEF5"/>
</svg>
