<svg width="16" height="16" viewBox="0 0 16 16" fill="none" xmlns="http://www.w3.org/2000/svg">
<path fill-rule="evenodd" clip-rule="evenodd" d="M8.00033 0.666626C3.95024 0.666626 0.666992 3.94987 0.666992 7.99996C0.666992 12.05 3.95024 15.3333 8.00033 15.3333C12.0504 15.3333 15.3337 12.05 15.3337 7.99996C15.3337 3.94987 12.0504 0.666626 8.00033 0.666626ZM7.27141 5.51411C7.54288 5.35457 7.86205 5.29625 8.1724 5.34948C8.48275 5.40271 8.76424 5.56406 8.96702 5.80495C9.16981 6.04584 9.28079 6.35073 9.28032 6.66561L9.28032 6.6666C9.28032 6.97936 9.03692 7.30541 8.57719 7.6119C8.36761 7.75162 8.15329 7.85926 7.98873 7.93239C7.9074 7.96854 7.84055 7.99523 7.7956 8.01236C7.77565 8.01996 7.75561 8.02731 7.73547 8.03438C7.38662 8.15108 7.19818 8.52835 7.31453 8.87742C7.43096 9.22671 7.80851 9.41549 8.15781 9.29906L8.27026 9.25834C8.33468 9.2338 8.42408 9.19799 8.53025 9.15081C8.74069 9.05728 9.02637 8.91491 9.31679 8.7213C9.85695 8.36119 10.6134 7.68744 10.6137 6.66721C10.6145 6.03759 10.3925 5.42797 9.98706 4.94628C9.58149 4.4645 9.0185 4.1418 8.39781 4.03534C7.77712 3.92887 7.13877 4.04551 6.59584 4.3646C6.0529 4.68369 5.64041 5.18463 5.43143 5.7787C5.30925 6.12603 5.49177 6.50664 5.83909 6.62882C6.18642 6.751 6.56703 6.56849 6.68921 6.22116C6.7937 5.92413 6.99995 5.67365 7.27141 5.51411ZM8.00032 10.6666C7.63213 10.6666 7.33365 10.9651 7.33365 11.3333C7.33365 11.7015 7.63213 11.9999 8.00032 11.9999H8.00699C8.37518 11.9999 8.67365 11.7015 8.67365 11.3333C8.67365 10.9651 8.37518 10.6666 8.00699 10.6666H8.00032Z" fill="#CBEEF5"/>
</svg>
