<svg width="16" height="12" viewBox="0 0 16 12" fill="none" xmlns="http://www.w3.org/2000/svg">
<path d="M4.10757 4.96071e-07H11.8923C12.2437 -1.03263e-05 12.5469 -1.96646e-05 12.7966 0.0203819C13.0602 0.0419159 13.3223 0.0894598 13.5746 0.217989C13.9509 0.409736 14.2569 0.715697 14.4486 1.09202C14.5771 1.34427 14.6247 1.60642 14.6462 1.86998C14.6666 2.11969 14.6666 2.42287 14.6666 2.77429V6.9333C14.6666 7.30667 14.6666 7.49335 14.5939 7.63596C14.53 7.7614 14.428 7.86339 14.3026 7.9273C14.16 7.99996 13.9733 7.99996 13.5999 7.99996H10.4418L10.4077 7.9999C10.2811 7.99957 10.1217 7.99914 9.96481 8.03681C9.82876 8.06947 9.6987 8.12334 9.57941 8.19644C9.44184 8.28075 9.32941 8.39378 9.24012 8.48354C9.12231 8.60151 8.96079 8.66502 8.79407 8.66502H7.20579C7.03907 8.66502 6.87754 8.60151 6.75973 8.48354C6.67045 8.39378 6.55802 8.28075 6.42045 8.19644C6.30115 8.12334 6.17109 8.06947 6.03505 8.03681C5.87816 7.99914 5.71873 7.99957 5.59213 7.9999L5.5581 7.99996H2.39993C2.02656 7.99996 1.83988 7.99996 1.69727 7.9273C1.57183 7.86339 1.46984 7.7614 1.40592 7.63596C1.33326 7.49335 1.33326 7.30667 1.33326 6.9333L1.33326 2.7743C1.33325 2.42287 1.33324 2.1197 1.35364 1.86998C1.37518 1.60642 1.42272 1.34427 1.55125 1.09202C1.743 0.715697 2.04896 0.409736 2.42528 0.217989C2.67753 0.0894598 2.93968 0.0419159 3.20324 0.0203819C3.45295 -1.96633e-05 3.75615 -1.03263e-05 4.10757 4.96071e-07Z" fill="#CBEEF5"/>
<path d="M1.68923 9.33362C1.32793 9.33351 1.14727 9.33345 0.994234 9.4202C0.875089 9.48773 0.7499 9.63305 0.700741 9.76087C0.637596 9.92507 0.659047 10.0681 0.701949 10.3542C0.71089 10.4138 0.721685 10.4692 0.734683 10.5177C0.919618 11.2079 1.45871 11.7469 2.1489 11.9319C2.40592 12.0007 2.69794 12.0004 3.03642 12.0001H12.9633C13.3018 12.0004 13.5938 12.0007 13.8508 11.9319C14.541 11.7469 15.0801 11.2079 15.2651 10.5177C15.278 10.4694 15.2887 10.4141 15.2976 10.3544C15.3401 10.0677 15.3613 9.92427 15.298 9.7603C15.2487 9.63252 15.1236 9.48763 15.0044 9.42018C14.8514 9.33361 14.6706 9.33373 14.3089 9.33397L10.5308 9.33646C10.3662 9.33657 10.2094 9.39994 10.0931 9.51638C10.0038 9.60615 9.89136 9.71918 9.75378 9.80348C9.63449 9.87659 9.50443 9.93046 9.36838 9.96312C9.2115 10.0008 9.05207 10.0004 8.92547 10L8.89143 9.99996H7.10842L7.0744 10C6.94779 10.0004 6.78836 10.0008 6.63148 9.96312C6.49543 9.93046 6.36537 9.87659 6.24607 9.80348C6.1085 9.71918 5.99608 9.60615 5.90679 9.51639C5.78911 9.39828 5.62746 9.33488 5.46073 9.33482L1.68923 9.33362Z" fill="#CBEEF5"/>
</svg>
