<svg width="16" height="16" viewBox="0 0 16 16" fill="none" xmlns="http://www.w3.org/2000/svg">
<path fill-rule="evenodd" clip-rule="evenodd" d="M7.22602 2H3.4413C3.08988 1.99999 2.78668 1.99998 2.53698 2.02038C2.27341 2.04192 2.01127 2.08946 1.75901 2.21799C1.38269 2.40974 1.07673 2.7157 0.884981 3.09202C0.756452 3.34427 0.708908 3.60642 0.687374 3.86998C0.666972 4.11969 0.666981 4.42286 0.666993 4.77428V10C0.666993 10.8938 1.25324 11.6506 2.06217 11.9069C2.32456 13.104 3.39114 14 4.66699 14C5.90955 14 6.95362 13.1502 7.24965 12H9.32057L9.33366 12.0001H9.69064C9.85244 13.1308 10.8249 14 12.0003 14C13.1898 14 14.1713 13.11 14.3154 11.9597C14.3785 11.9457 14.4441 11.9262 14.5106 11.8986C14.8373 11.7633 15.0968 11.5037 15.2322 11.177C15.2968 11.021 15.3171 10.8705 15.3258 10.7436C15.3337 10.6276 15.3337 10.4911 15.3337 10.3511L15.3337 8.44196L15.3337 8.40793C15.3341 8.28132 15.3345 8.1219 15.2968 7.96501C15.2642 7.82896 15.2103 7.6989 15.1372 7.57961C15.0529 7.44204 14.9398 7.32961 14.8501 7.24032L14.826 7.2163L12.1175 4.50781L12.0935 4.48371C12.0042 4.39394 11.8918 4.28091 11.7542 4.19661C11.6349 4.1235 11.5048 4.06963 11.3688 4.03697C11.2119 3.9993 11.0525 3.99973 10.9259 4.00007L10.8918 4.00013H9.98859C9.98622 3.95526 9.98337 3.91187 9.97995 3.86998C9.95841 3.60642 9.91087 3.34427 9.78234 3.09202C9.59059 2.7157 9.28463 2.40974 8.90831 2.21799C8.65606 2.08946 8.39391 2.04192 8.13035 2.02038C7.88064 1.99998 7.57745 1.99999 7.22602 2ZM14.0001 10.4638C14.0003 10.4263 14.0003 10.3833 14.0003 10.3335V8.44196C14.0003 8.35462 14.0002 8.31103 13.9987 8.27937L13.9986 8.27698L13.997 8.27521C13.9756 8.2518 13.9449 8.22087 13.8832 8.15911L11.1747 5.45062C11.1129 5.38886 11.082 5.35816 11.0586 5.33679L11.0568 5.33518L11.0544 5.33507C11.0228 5.33362 10.9792 5.33346 10.8918 5.33346H10.0003V10.4641C10.4086 9.78653 11.1516 9.33333 12.0003 9.33333C12.849 9.33333 13.5918 9.78638 14.0001 10.4638ZM4.66699 10C3.93061 10 3.33366 10.597 3.33366 11.3333C3.33366 12.0697 3.93061 12.6667 4.66699 12.6667C5.40337 12.6667 6.00033 12.0697 6.00033 11.3333C6.00033 10.597 5.40337 10 4.66699 10ZM11.0003 11.6667C11.0003 11.1144 11.448 10.6667 12.0003 10.6667C12.5526 10.6667 13.0003 11.1144 13.0003 11.6667C13.0003 12.219 12.5526 12.6667 12.0003 12.6667C11.448 12.6667 11.0003 12.219 11.0003 11.6667Z" fill="#CBEEF5"/>
</svg>
