<svg width="141" height="40" viewBox="0 0 141 40" fill="none" xmlns="http://www.w3.org/2000/svg">
<rect width="141" height="40" rx="2" fill="#CCCCCF"/>
<path d="M33 29H15M30 19L24 25M24 25L18 19M24 25V11" stroke="#18181C" stroke-width="2" stroke-linecap="round" stroke-linejoin="round"/>
<path d="M42.4972 16.593V14.8182H50.8594V16.593H47.7422V25H45.6143V16.593H42.4972ZM54.5694 25.1491C53.7839 25.1491 53.1078 24.9901 52.541 24.6719C51.9776 24.3504 51.5434 23.8963 51.2385 23.3097C50.9335 22.7197 50.7811 22.022 50.7811 21.2166C50.7811 20.4311 50.9335 19.7417 51.2385 19.1484C51.5434 18.5552 51.9726 18.0928 52.5261 17.7614C53.0829 17.4299 53.7359 17.2642 54.4849 17.2642C54.9887 17.2642 55.4577 17.3454 55.8919 17.5078C56.3294 17.6669 56.7105 17.9072 57.0353 18.2287C57.3635 18.5502 57.6187 18.9545 57.801 19.4418C57.9833 19.9257 58.0744 20.4924 58.0744 21.142V21.7237H51.6262V20.4112H56.0808C56.0808 20.1063 56.0145 19.8362 55.8819 19.6009C55.7493 19.3655 55.5654 19.1816 55.3301 19.049C55.0981 18.9131 54.8279 18.8452 54.5197 18.8452C54.1982 18.8452 53.9132 18.9197 53.6646 19.0689C53.4193 19.2147 53.2271 19.4119 53.0879 19.6605C52.9487 19.9058 52.8774 20.1792 52.8741 20.4808V21.7287C52.8741 22.1065 52.9437 22.433 53.0829 22.7081C53.2254 22.9832 53.426 23.1953 53.6845 23.3445C53.943 23.4936 54.2496 23.5682 54.6042 23.5682C54.8395 23.5682 55.055 23.535 55.2505 23.4688C55.4461 23.4025 55.6135 23.303 55.7527 23.1705C55.8919 23.0379 55.9979 22.8755 56.0708 22.6832L58.0297 22.8125C57.9302 23.2831 57.7264 23.6941 57.4181 24.0455C57.1132 24.3935 56.7188 24.6652 56.2349 24.8608C55.7543 25.053 55.1992 25.1491 54.5694 25.1491ZM53.6745 16.3793L54.7285 14.1172H56.6873L55.171 16.3793H53.6745ZM61.5744 14.8182V25H59.4565V14.8182H61.5744ZM66.7511 25.1491C65.9656 25.1491 65.2894 24.9901 64.7227 24.6719C64.1592 24.3504 63.725 23.8963 63.4201 23.3097C63.1152 22.7197 62.9627 22.022 62.9627 21.2166C62.9627 20.4311 63.1152 19.7417 63.4201 19.1484C63.725 18.5552 64.1542 18.0928 64.7077 17.7614C65.2646 17.4299 65.9175 17.2642 66.6665 17.2642C67.1703 17.2642 67.6393 17.3454 68.0735 17.5078C68.511 17.6669 68.8922 17.9072 69.217 18.2287C69.5451 18.5502 69.8003 18.9545 69.9826 19.4418C70.1649 19.9257 70.256 20.4924 70.256 21.142V21.7237H63.8079V20.4112H68.2624C68.2624 20.1063 68.1961 19.8362 68.0636 19.6009C67.931 19.3655 67.747 19.1816 67.5117 19.049C67.2797 18.9131 67.0096 18.8452 66.7013 18.8452C66.3799 18.8452 66.0948 18.9197 65.8462 19.0689C65.601 19.2147 65.4087 19.4119 65.2695 19.6605C65.1303 19.9058 65.0591 20.1792 65.0558 20.4808V21.7287C65.0558 22.1065 65.1254 22.433 65.2646 22.7081C65.4071 22.9832 65.6076 23.1953 65.8661 23.3445C66.1246 23.4936 66.4312 23.5682 66.7859 23.5682C67.0212 23.5682 67.2366 23.535 67.4322 23.4688C67.6277 23.4025 67.7951 23.303 67.9343 23.1705C68.0735 23.0379 68.1796 22.8755 68.2525 22.6832L70.2113 22.8125C70.1119 23.2831 69.908 23.6941 69.5998 24.0455C69.2949 24.3935 68.9004 24.6652 68.4165 24.8608C67.936 25.053 67.3808 25.1491 66.7511 25.1491ZM65.8562 16.3793L66.9102 14.1172H68.869L67.3526 16.3793H65.8562ZM75.0884 25.1491C74.3062 25.1491 73.6334 24.9834 73.07 24.652C72.5098 24.3172 72.079 23.8532 71.7773 23.2599C71.479 22.6667 71.3299 21.9839 71.3299 21.2116C71.3299 20.4295 71.4807 19.7434 71.7823 19.1534C72.0872 18.5601 72.5198 18.0978 73.0799 17.7663C73.64 17.4316 74.3062 17.2642 75.0785 17.2642C75.7447 17.2642 76.328 17.3852 76.8285 17.6271C77.329 17.8691 77.725 18.2088 78.0167 18.6463C78.3084 19.0838 78.4691 19.5975 78.4989 20.1875H76.5004C76.444 19.8063 76.2949 19.4998 76.0529 19.2678C75.8143 19.0324 75.5011 18.9148 75.1133 18.9148C74.7852 18.9148 74.4985 19.0043 74.2532 19.1832C74.0112 19.3589 73.8223 19.6158 73.6864 19.9538C73.5505 20.2919 73.4826 20.7012 73.4826 21.1818C73.4826 21.669 73.5489 22.0833 73.6815 22.4247C73.8174 22.7661 74.0079 23.0263 74.2532 23.2053C74.4985 23.3842 74.7852 23.4737 75.1133 23.4737C75.3552 23.4737 75.5723 23.424 75.7646 23.3246C75.9601 23.2251 76.1209 23.081 76.2468 22.892C76.3761 22.6998 76.4606 22.4695 76.5004 22.201H78.4989C78.4658 22.7843 78.3067 23.2981 78.0217 23.7422C77.7399 24.183 77.3505 24.5277 76.8533 24.7763C76.3562 25.0249 75.7679 25.1491 75.0884 25.1491ZM81.9728 20.5852V25H79.8549V14.8182H81.9132V18.7109H82.0027C82.175 18.2602 82.4534 17.9072 82.8379 17.652C83.2224 17.3935 83.7046 17.2642 84.2846 17.2642C84.8149 17.2642 85.2773 17.3802 85.6717 17.6122C86.0694 17.8409 86.3777 18.1707 86.5964 18.6016C86.8185 19.0291 86.9279 19.5412 86.9245 20.1378V25H84.8066V20.5156C84.81 20.045 84.6906 19.6787 84.4487 19.4169C84.2101 19.1551 83.8753 19.0241 83.4444 19.0241C83.1561 19.0241 82.9009 19.0855 82.6788 19.2081C82.46 19.3307 82.2877 19.5097 82.1618 19.745C82.0391 19.977 81.9761 20.2571 81.9728 20.5852ZM90.7688 25.1442C90.2816 25.1442 89.8474 25.0597 89.4663 24.8906C89.0851 24.7183 88.7835 24.4647 88.5614 24.13C88.3427 23.7919 88.2333 23.371 88.2333 22.8672C88.2333 22.4429 88.3112 22.0866 88.467 21.7983C88.6228 21.5099 88.8349 21.2779 89.1033 21.1023C89.3718 20.9266 89.6767 20.794 90.0181 20.7045C90.3628 20.6151 90.7241 20.5521 91.1019 20.5156C91.546 20.4692 91.904 20.4261 92.1758 20.3864C92.4476 20.3433 92.6448 20.2803 92.7674 20.1974C92.89 20.1146 92.9513 19.992 92.9513 19.8295V19.7997C92.9513 19.4848 92.8519 19.2412 92.6531 19.0689C92.4575 18.8965 92.1791 18.8104 91.8178 18.8104C91.4367 18.8104 91.1334 18.8949 90.908 19.0639C90.6826 19.2296 90.5335 19.4384 90.4606 19.6903L88.5018 19.5312C88.6012 19.0672 88.7968 18.6662 89.0884 18.3281C89.3801 17.9867 89.7563 17.7249 90.217 17.5426C90.681 17.357 91.2179 17.2642 91.8278 17.2642C92.252 17.2642 92.658 17.3139 93.0458 17.4134C93.4369 17.5128 93.7833 17.6669 94.0849 17.8757C94.3898 18.0845 94.6301 18.353 94.8058 18.6811C94.9814 19.0059 95.0692 19.3954 95.0692 19.8494V25H93.0607V23.9411H93.0011C92.8784 24.1797 92.7144 24.3902 92.5089 24.5724C92.3034 24.7514 92.0565 24.8923 91.7681 24.995C91.4798 25.0945 91.1467 25.1442 90.7688 25.1442ZM91.3754 23.6825C91.6869 23.6825 91.962 23.6212 92.2006 23.4986C92.4393 23.3726 92.6265 23.2036 92.7624 22.9915C92.8983 22.7794 92.9663 22.5391 92.9663 22.2706V21.4602C92.9 21.5033 92.8088 21.5431 92.6928 21.5795C92.5801 21.6127 92.4525 21.6442 92.31 21.674C92.1675 21.7005 92.025 21.7254 91.8825 21.7486C91.7399 21.7685 91.6107 21.7867 91.4947 21.8033C91.2461 21.8397 91.029 21.8977 90.8434 21.9773C90.6578 22.0568 90.5136 22.1645 90.4109 22.3004C90.3081 22.433 90.2567 22.5987 90.2567 22.7976C90.2567 23.0859 90.3612 23.3063 90.57 23.4588C90.7821 23.608 91.0505 23.6825 91.3754 23.6825ZM96.7124 25V17.3636H98.7656V18.696H98.8452C98.9844 18.2221 99.218 17.8641 99.5462 17.6222C99.8743 17.3769 100.252 17.2543 100.68 17.2543C100.786 17.2543 100.9 17.2609 101.023 17.2741C101.145 17.2874 101.253 17.3056 101.346 17.3288V19.2081C101.246 19.1783 101.109 19.1518 100.933 19.1286C100.758 19.1054 100.597 19.0938 100.451 19.0938C100.139 19.0938 99.861 19.1617 99.6158 19.2976C99.3738 19.4302 99.1816 19.6158 99.0391 19.8544C98.8999 20.093 98.8303 20.3681 98.8303 20.6797V25H96.7124ZM105.526 28.0227C104.84 28.0227 104.251 27.9283 103.761 27.7393C103.274 27.5537 102.886 27.3002 102.597 26.9787C102.309 26.6572 102.122 26.2959 102.036 25.8949L103.994 25.6314C104.054 25.7839 104.149 25.9264 104.278 26.0589C104.407 26.1915 104.578 26.2976 104.79 26.3771C105.005 26.46 105.267 26.5014 105.575 26.5014C106.036 26.5014 106.416 26.3887 106.714 26.1634C107.016 25.9413 107.166 25.5684 107.166 25.0447V23.6477H107.077C106.984 23.8598 106.845 24.0604 106.659 24.2493C106.474 24.4382 106.235 24.5923 105.943 24.7116C105.652 24.831 105.304 24.8906 104.899 24.8906C104.326 24.8906 103.804 24.758 103.333 24.4929C102.866 24.2244 102.493 23.8151 102.215 23.2649C101.94 22.7114 101.802 22.0121 101.802 21.1669C101.802 20.3018 101.943 19.5793 102.225 18.9993C102.506 18.4193 102.881 17.9851 103.348 17.6967C103.819 17.4084 104.334 17.2642 104.894 17.2642C105.322 17.2642 105.68 17.3371 105.968 17.483C106.257 17.6255 106.489 17.8045 106.664 18.0199C106.843 18.232 106.981 18.4408 107.077 18.6463H107.156V17.3636H109.259V25.0746C109.259 25.7242 109.1 26.2678 108.782 26.7053C108.464 27.1428 108.023 27.4709 107.46 27.6896C106.9 27.9117 106.255 28.0227 105.526 28.0227ZM105.57 23.2997C105.912 23.2997 106.2 23.2152 106.436 23.0462C106.674 22.8738 106.856 22.6286 106.982 22.3104C107.112 21.9889 107.176 21.6044 107.176 21.157C107.176 20.7095 107.113 20.3217 106.987 19.9936C106.861 19.6622 106.679 19.4053 106.441 19.223C106.202 19.0407 105.912 18.9496 105.57 18.9496C105.222 18.9496 104.929 19.044 104.691 19.233C104.452 19.4186 104.271 19.6771 104.149 20.0085C104.026 20.34 103.965 20.7228 103.965 21.157C103.965 21.5978 104.026 21.9789 104.149 22.3004C104.275 22.6186 104.455 22.8655 104.691 23.0412C104.929 23.2135 105.222 23.2997 105.57 23.2997ZM114.425 25.1491C113.639 25.1491 112.963 24.9901 112.396 24.6719C111.833 24.3504 111.399 23.8963 111.094 23.3097C110.789 22.7197 110.637 22.022 110.637 21.2166C110.637 20.4311 110.789 19.7417 111.094 19.1484C111.399 18.5552 111.828 18.0928 112.382 17.7614C112.938 17.4299 113.591 17.2642 114.34 17.2642C114.844 17.2642 115.313 17.3454 115.747 17.5078C116.185 17.6669 116.566 17.9072 116.891 18.2287C117.219 18.5502 117.474 18.9545 117.656 19.4418C117.839 19.9257 117.93 20.4924 117.93 21.142V21.7237H111.482V20.4112H115.936C115.936 20.1063 115.87 19.8362 115.737 19.6009C115.605 19.3655 115.421 19.1816 115.186 19.049C114.954 18.9131 114.683 18.8452 114.375 18.8452C114.054 18.8452 113.769 18.9197 113.52 19.0689C113.275 19.2147 113.083 19.4119 112.943 19.6605C112.804 19.9058 112.733 20.1792 112.73 20.4808V21.7287C112.73 22.1065 112.799 22.433 112.938 22.7081C113.081 22.9832 113.281 23.1953 113.54 23.3445C113.798 23.4936 114.105 23.5682 114.46 23.5682C114.695 23.5682 114.91 23.535 115.106 23.4688C115.302 23.4025 115.469 23.303 115.608 23.1705C115.747 23.0379 115.853 22.8755 115.926 22.6832L117.885 22.8125C117.786 23.2831 117.582 23.6941 117.274 24.0455C116.969 24.3935 116.574 24.6652 116.09 24.8608C115.61 25.053 115.055 25.1491 114.425 25.1491ZM119.312 25V17.3636H121.365V18.696H121.445C121.584 18.2221 121.818 17.8641 122.146 17.6222C122.474 17.3769 122.852 17.2543 123.279 17.2543C123.385 17.2543 123.5 17.2609 123.622 17.2741C123.745 17.2874 123.853 17.3056 123.945 17.3288V19.2081C123.846 19.1783 123.709 19.1518 123.533 19.1286C123.357 19.1054 123.196 19.0938 123.051 19.0938C122.739 19.0938 122.461 19.1617 122.215 19.2976C121.973 19.4302 121.781 19.6158 121.639 19.8544C121.499 20.093 121.43 20.3681 121.43 20.6797V25H119.312Z" fill="#18181C"/>
</svg>
