<svg width="222" height="40" viewBox="0 0 222 40" fill="none" xmlns="http://www.w3.org/2000/svg">
<rect x="0.5" width="221" height="40" rx="2" fill="#DFDFE0"/>
<path d="M21.1666 14.0007C21.1666 13.6325 20.8681 13.334 20.4999 13.334C20.1317 13.334 19.8333 13.6325 19.8333 14.0007V20.3912L17.638 18.1959C17.3776 17.9356 16.9555 17.9356 16.6952 18.1959C16.4348 18.4563 16.4348 18.8784 16.6952 19.1387L20.0285 22.4721C20.2889 22.7324 20.711 22.7324 20.9713 22.4721L24.3047 19.1387C24.565 18.8784 24.565 18.4563 24.3047 18.1959C24.0443 17.9356 23.6222 17.9356 23.3618 18.1959L21.1666 20.3912V14.0007Z" fill="#18181C"/>
<path d="M14.4999 21.334C14.8681 21.334 15.1666 21.6325 15.1666 22.0007V22.8007C15.1666 23.3717 15.1671 23.7599 15.1916 24.06C15.2155 24.3522 15.2588 24.5017 15.3119 24.606C15.4397 24.8569 15.6437 25.0608 15.8946 25.1887C15.9989 25.2418 16.1483 25.2851 16.4406 25.309C16.7407 25.3335 17.1289 25.334 17.6999 25.334H23.2999C23.871 25.334 24.2592 25.3335 24.5592 25.309C24.8515 25.2851 25.001 25.2418 25.1052 25.1887C25.3561 25.0608 25.5601 24.8569 25.6879 24.606C25.7411 24.5017 25.7843 24.3522 25.8082 24.06C25.8327 23.7599 25.8333 23.3717 25.8333 22.8007V22.0007C25.8333 21.6325 26.1317 21.334 26.4999 21.334C26.8681 21.334 27.1666 21.6325 27.1666 22.0007V22.8282C27.1666 23.3648 27.1666 23.8077 27.1371 24.1685C27.1065 24.5433 27.0408 24.8877 26.8759 25.2113C26.6203 25.7131 26.2123 26.121 25.7106 26.3767C25.387 26.5415 25.0425 26.6072 24.6678 26.6379C24.307 26.6673 23.8641 26.6673 23.3275 26.6673H17.6724C17.1357 26.6673 16.6928 26.6673 16.332 26.6379C15.9573 26.6072 15.6128 26.5415 15.2893 26.3767C14.7875 26.121 14.3796 25.7131 14.1239 25.2113C13.959 24.8877 13.8933 24.5433 13.8627 24.1685C13.8332 23.8077 13.8332 23.3648 13.8333 22.8282V22.0007C13.8333 21.6325 14.1317 21.334 14.4999 21.334Z" fill="#18181C"/>
<path d="M37.6477 26V14.3636H45.2159V16.1307H39.7557V19.2898H44.8239V21.0568H39.7557V24.233H45.2614V26H37.6477ZM48.9574 17.2727L50.7188 20.4943L52.5085 17.2727H54.6847L52.054 21.6364L54.7301 26H52.5653L50.7188 22.858L48.8892 26H46.7074L49.3665 21.6364L46.7756 17.2727H48.9574ZM56.2756 29.2727V17.2727H58.2983V18.7159H58.4176C58.5237 18.5038 58.6733 18.2784 58.8665 18.0398C59.0597 17.7973 59.321 17.5909 59.6506 17.4205C59.9801 17.2462 60.4006 17.1591 60.9119 17.1591C61.5862 17.1591 62.1941 17.3314 62.7358 17.6761C63.2813 18.017 63.7131 18.5227 64.0312 19.1932C64.3532 19.8598 64.5142 20.678 64.5142 21.6477C64.5142 22.6061 64.357 23.4205 64.0426 24.0909C63.7282 24.7614 63.3002 25.2727 62.7585 25.625C62.2169 25.9773 61.6032 26.1534 60.9176 26.1534C60.4176 26.1534 60.0028 26.0701 59.6733 25.9034C59.3438 25.7367 59.0786 25.536 58.8778 25.3011C58.6809 25.0625 58.5275 24.8371 58.4176 24.625H58.3324V29.2727H56.2756ZM58.2926 21.6364C58.2926 22.2008 58.3722 22.6951 58.5312 23.1193C58.6941 23.5436 58.9271 23.875 59.2301 24.1136C59.5369 24.3485 59.9081 24.4659 60.3438 24.4659C60.7983 24.4659 61.179 24.3447 61.4858 24.1023C61.7926 23.8561 62.0237 23.5208 62.179 23.0966C62.3381 22.6686 62.4176 22.1818 62.4176 21.6364C62.4176 21.0947 62.34 20.6136 62.1847 20.1932C62.0294 19.7727 61.7983 19.4432 61.4915 19.2045C61.1847 18.9659 60.8021 18.8466 60.3438 18.8466C59.9044 18.8466 59.5312 18.9621 59.2244 19.1932C58.9176 19.4242 58.6847 19.7481 58.5256 20.1648C58.3703 20.5814 58.2926 21.072 58.2926 21.6364ZM70.0824 26.1705C69.2301 26.1705 68.4915 25.983 67.8665 25.608C67.2415 25.233 66.7566 24.7083 66.4119 24.0341C66.071 23.3598 65.9006 22.572 65.9006 21.6705C65.9006 20.7689 66.071 19.9792 66.4119 19.3011C66.7566 18.6231 67.2415 18.0966 67.8665 17.7216C68.4915 17.3466 69.2301 17.1591 70.0824 17.1591C70.9347 17.1591 71.6733 17.3466 72.2983 17.7216C72.9233 18.0966 73.4063 18.6231 73.7472 19.3011C74.0919 19.9792 74.2642 20.7689 74.2642 21.6705C74.2642 22.572 74.0919 23.3598 73.7472 24.0341C73.4063 24.7083 72.9233 25.233 72.2983 25.608C71.6733 25.983 70.9347 26.1705 70.0824 26.1705ZM70.0938 24.5227C70.5559 24.5227 70.9422 24.3958 71.2528 24.142C71.5634 23.8845 71.7945 23.5398 71.946 23.108C72.1013 22.6761 72.179 22.1951 72.179 21.6648C72.179 21.1307 72.1013 20.6477 71.946 20.2159C71.7945 19.7803 71.5634 19.4337 71.2528 19.1761C70.9422 18.9186 70.5559 18.7898 70.0938 18.7898C69.6203 18.7898 69.2263 18.9186 68.9119 19.1761C68.6013 19.4337 68.3684 19.7803 68.2131 20.2159C68.0616 20.6477 67.9858 21.1307 67.9858 21.6648C67.9858 22.1951 68.0616 22.6761 68.2131 23.108C68.3684 23.5398 68.6013 23.8845 68.9119 24.142C69.2263 24.3958 69.6203 24.5227 70.0938 24.5227ZM76.0099 26V17.2727H78.0043V18.7273H78.0952C78.2543 18.2235 78.527 17.8352 78.9134 17.5625C79.3035 17.286 79.7486 17.1477 80.2486 17.1477C80.3622 17.1477 80.4891 17.1534 80.6293 17.1648C80.7732 17.1723 80.8925 17.1856 80.9872 17.2045V19.0966C80.9001 19.0663 80.7618 19.0398 80.5724 19.017C80.3868 18.9905 80.2069 18.9773 80.0327 18.9773C79.6577 18.9773 79.3205 19.0587 79.0213 19.2216C78.7259 19.3807 78.4929 19.6023 78.3224 19.8864C78.152 20.1705 78.0668 20.4981 78.0668 20.8693V26H76.0099ZM87.1804 17.2727V18.8636H82.1634V17.2727H87.1804ZM83.402 15.1818H85.4588V23.375C85.4588 23.6515 85.5005 23.8636 85.5838 24.0114C85.6709 24.1553 85.7846 24.2538 85.9247 24.3068C86.0649 24.3598 86.2202 24.3864 86.3906 24.3864C86.5194 24.3864 86.6368 24.3769 86.7429 24.358C86.8527 24.339 86.9361 24.322 86.9929 24.3068L87.3395 25.9148C87.2296 25.9527 87.0724 25.9943 86.8679 26.0398C86.6671 26.0852 86.4209 26.1117 86.1293 26.1193C85.6141 26.1345 85.1501 26.0568 84.7372 25.8864C84.3243 25.7121 83.9967 25.4432 83.7543 25.0795C83.5156 24.7159 83.3982 24.2614 83.402 23.7159V15.1818ZM92.6705 26.1705C91.7955 26.1705 91.0398 25.9886 90.4034 25.625C89.7708 25.2576 89.2841 24.7386 88.9432 24.0682C88.6023 23.3939 88.4318 22.6004 88.4318 21.6875C88.4318 20.7898 88.6023 20.0019 88.9432 19.3239C89.2879 18.642 89.7689 18.1117 90.3864 17.733C91.0038 17.3504 91.7292 17.1591 92.5625 17.1591C93.1004 17.1591 93.608 17.2462 94.0852 17.4205C94.5663 17.5909 94.9905 17.8561 95.358 18.2159C95.7292 18.5758 96.0208 19.0341 96.233 19.5909C96.4451 20.1439 96.5511 20.803 96.5511 21.5682V22.1989H89.3977V20.8125H94.5795C94.5758 20.4186 94.4905 20.0682 94.3239 19.7614C94.1572 19.4508 93.9242 19.2064 93.625 19.0284C93.3295 18.8504 92.9848 18.7614 92.5909 18.7614C92.1705 18.7614 91.8011 18.8636 91.483 19.0682C91.1648 19.2689 90.9167 19.5341 90.7386 19.8636C90.5644 20.1894 90.4754 20.5473 90.4716 20.9375V22.1477C90.4716 22.6553 90.5644 23.0909 90.75 23.4545C90.9356 23.8144 91.1951 24.0909 91.5284 24.2841C91.8617 24.4735 92.2519 24.5682 92.6989 24.5682C92.9981 24.5682 93.2689 24.5265 93.5114 24.4432C93.7538 24.3561 93.964 24.2292 94.142 24.0625C94.3201 23.8958 94.4545 23.6894 94.5455 23.4432L96.4659 23.6591C96.3447 24.1667 96.1136 24.6098 95.7727 24.9886C95.4356 25.3636 95.0038 25.6553 94.4773 25.8636C93.9508 26.0682 93.3485 26.1705 92.6705 26.1705ZM98.2912 26V17.2727H100.286V18.7273H100.376C100.536 18.2235 100.808 17.8352 101.195 17.5625C101.585 17.286 102.03 17.1477 102.53 17.1477C102.643 17.1477 102.77 17.1534 102.911 17.1648C103.054 17.1723 103.174 17.1856 103.268 17.2045V19.0966C103.181 19.0663 103.043 19.0398 102.854 19.017C102.668 18.9905 102.488 18.9773 102.314 18.9773C101.939 18.9773 101.602 19.0587 101.303 19.2216C101.007 19.3807 100.774 19.6023 100.604 19.8864C100.433 20.1705 100.348 20.4981 100.348 20.8693V26H98.2912ZM112.467 26.1705C111.592 26.1705 110.837 25.9886 110.2 25.625C109.568 25.2576 109.081 24.7386 108.74 24.0682C108.399 23.3939 108.229 22.6004 108.229 21.6875C108.229 20.7898 108.399 20.0019 108.74 19.3239C109.085 18.642 109.566 18.1117 110.183 17.733C110.801 17.3504 111.526 17.1591 112.359 17.1591C112.897 17.1591 113.405 17.2462 113.882 17.4205C114.363 17.5909 114.787 17.8561 115.155 18.2159C115.526 18.5758 115.818 19.0341 116.03 19.5909C116.242 20.1439 116.348 20.803 116.348 21.5682V22.1989H109.195V20.8125H114.376C114.373 20.4186 114.287 20.0682 114.121 19.7614C113.954 19.4508 113.721 19.2064 113.422 19.0284C113.126 18.8504 112.782 18.7614 112.388 18.7614C111.967 18.7614 111.598 18.8636 111.28 19.0682C110.962 19.2689 110.714 19.5341 110.536 19.8636C110.361 20.1894 110.272 20.5473 110.268 20.9375V22.1477C110.268 22.6553 110.361 23.0909 110.547 23.4545C110.732 23.8144 110.992 24.0909 111.325 24.2841C111.659 24.4735 112.049 24.5682 112.496 24.5682C112.795 24.5682 113.066 24.5265 113.308 24.4432C113.551 24.3561 113.761 24.2292 113.939 24.0625C114.117 23.8958 114.251 23.6894 114.342 23.4432L116.263 23.6591C116.142 24.1667 115.911 24.6098 115.57 24.9886C115.232 25.3636 114.801 25.6553 114.274 25.8636C113.748 26.0682 113.145 26.1705 112.467 26.1705ZM119.582 17.2727L121.344 20.4943L123.134 17.2727H125.31L122.679 21.6364L125.355 26H123.19L121.344 22.858L119.514 26H117.332L119.991 21.6364L117.401 17.2727H119.582ZM131.259 17.2727V18.8636H126.241V17.2727H131.259ZM127.48 15.1818H129.537V23.375C129.537 23.6515 129.579 23.8636 129.662 24.0114C129.749 24.1553 129.863 24.2538 130.003 24.3068C130.143 24.3598 130.298 24.3864 130.469 24.3864C130.598 24.3864 130.715 24.3769 130.821 24.358C130.931 24.339 131.014 24.322 131.071 24.3068L131.418 25.9148C131.308 25.9527 131.151 25.9943 130.946 26.0398C130.745 26.0852 130.499 26.1117 130.207 26.1193C129.692 26.1345 129.228 26.0568 128.815 25.8864C128.402 25.7121 128.075 25.4432 127.832 25.0795C127.594 24.7159 127.476 24.2614 127.48 23.7159V15.1818ZM132.979 26V17.2727H134.973V18.7273H135.064C135.223 18.2235 135.496 17.8352 135.882 17.5625C136.272 17.286 136.717 17.1477 137.217 17.1477C137.331 17.1477 137.458 17.1534 137.598 17.1648C137.742 17.1723 137.861 17.1856 137.956 17.2045V19.0966C137.869 19.0663 137.731 19.0398 137.541 19.017C137.356 18.9905 137.176 18.9773 137.001 18.9773C136.626 18.9773 136.289 19.0587 135.99 19.2216C135.695 19.3807 135.462 19.6023 135.291 19.8864C135.121 20.1705 135.036 20.4981 135.036 20.8693V26H132.979ZM141.678 26.1761C141.125 26.1761 140.626 26.0777 140.183 25.8807C139.744 25.6799 139.395 25.3845 139.138 24.9943C138.884 24.6042 138.757 24.1231 138.757 23.5511C138.757 23.0587 138.848 22.6515 139.03 22.3295C139.212 22.0076 139.46 21.75 139.774 21.5568C140.089 21.3636 140.443 21.2178 140.837 21.1193C141.234 21.017 141.645 20.9432 142.07 20.8977C142.581 20.8447 142.996 20.7973 143.314 20.7557C143.632 20.7102 143.863 20.642 144.007 20.5511C144.155 20.4564 144.229 20.3106 144.229 20.1136V20.0795C144.229 19.6515 144.102 19.3201 143.848 19.0852C143.594 18.8504 143.229 18.733 142.751 18.733C142.248 18.733 141.848 18.8428 141.553 19.0625C141.261 19.2822 141.064 19.5417 140.962 19.8409L139.041 19.5682C139.193 19.0379 139.443 18.5947 139.791 18.2386C140.14 17.8788 140.566 17.6098 141.07 17.4318C141.573 17.25 142.13 17.1591 142.74 17.1591C143.161 17.1591 143.579 17.2083 143.996 17.3068C144.412 17.4053 144.793 17.5682 145.138 17.7955C145.482 18.0189 145.759 18.3239 145.967 18.7102C146.179 19.0966 146.286 19.5795 146.286 20.1591V26H144.308V24.8011H144.24C144.115 25.0436 143.939 25.2708 143.712 25.483C143.488 25.6913 143.206 25.8598 142.865 25.9886C142.528 26.1136 142.132 26.1761 141.678 26.1761ZM142.212 24.6648C142.625 24.6648 142.982 24.5833 143.286 24.4205C143.589 24.2538 143.821 24.0341 143.984 23.7614C144.151 23.4886 144.234 23.1913 144.234 22.8693V21.8409C144.17 21.8939 144.06 21.9432 143.905 21.9886C143.753 22.0341 143.583 22.0739 143.393 22.108C143.204 22.142 143.017 22.1723 142.831 22.1989C142.645 22.2254 142.484 22.2481 142.348 22.267C142.041 22.3087 141.767 22.3769 141.524 22.4716C141.282 22.5663 141.09 22.6989 140.95 22.8693C140.81 23.036 140.74 23.2519 140.74 23.517C140.74 23.8958 140.878 24.1818 141.155 24.375C141.431 24.5682 141.784 24.6648 142.212 24.6648ZM148.354 26V17.2727H150.411V26H148.354ZM149.388 16.0341C149.062 16.0341 148.782 15.9261 148.547 15.7102C148.312 15.4905 148.195 15.2273 148.195 14.9205C148.195 14.6098 148.312 14.3466 148.547 14.1307C148.782 13.911 149.062 13.8011 149.388 13.8011C149.717 13.8011 149.998 13.911 150.229 14.1307C150.464 14.3466 150.581 14.6098 150.581 14.9205C150.581 15.2273 150.464 15.4905 150.229 15.7102C149.998 15.9261 149.717 16.0341 149.388 16.0341ZM156.884 17.2727V18.8636H151.866V17.2727H156.884ZM153.105 15.1818H155.162V23.375C155.162 23.6515 155.204 23.8636 155.287 24.0114C155.374 24.1553 155.488 24.2538 155.628 24.3068C155.768 24.3598 155.923 24.3864 156.094 24.3864C156.223 24.3864 156.34 24.3769 156.446 24.358C156.556 24.339 156.639 24.322 156.696 24.3068L157.043 25.9148C156.933 25.9527 156.776 25.9943 156.571 26.0398C156.37 26.0852 156.124 26.1117 155.832 26.1193C155.317 26.1345 154.853 26.0568 154.44 25.8864C154.027 25.7121 153.7 25.4432 153.457 25.0795C153.219 24.7159 153.101 24.2614 153.105 23.7159V15.1818ZM163.084 21.2557C163.084 19.8352 163.271 18.5303 163.646 17.3409C164.025 16.1477 164.588 15.0455 165.334 14.0341H167.271C166.983 14.4091 166.714 14.8693 166.464 15.4148C166.214 15.9564 165.997 16.5511 165.811 17.1989C165.629 17.8428 165.485 18.5114 165.379 19.2045C165.277 19.8977 165.226 20.5814 165.226 21.2557C165.226 22.1534 165.315 23.0625 165.493 23.983C165.675 24.9034 165.919 25.7557 166.226 26.5398C166.536 27.3277 166.885 27.9716 167.271 28.4716H165.334C164.588 27.4602 164.025 26.3598 163.646 25.1705C163.271 23.9773 163.084 22.6723 163.084 21.2557ZM170.136 26.125C169.792 26.125 169.496 26.0038 169.25 25.7614C169.004 25.5189 168.883 25.2235 168.886 24.875C168.883 24.5341 169.004 24.2424 169.25 24C169.496 23.7576 169.792 23.6364 170.136 23.6364C170.47 23.6364 170.759 23.7576 171.006 24C171.256 24.2424 171.383 24.5341 171.386 24.875C171.383 25.1061 171.322 25.3163 171.205 25.5057C171.091 25.6951 170.939 25.8466 170.75 25.9602C170.564 26.0701 170.36 26.125 170.136 26.125ZM173.51 29.2727V17.2727H175.533V18.7159H175.652C175.758 18.5038 175.908 18.2784 176.101 18.0398C176.294 17.7973 176.555 17.5909 176.885 17.4205C177.214 17.2462 177.635 17.1591 178.146 17.1591C178.821 17.1591 179.429 17.3314 179.97 17.6761C180.516 18.017 180.947 18.5227 181.266 19.1932C181.588 19.8598 181.749 20.678 181.749 21.6477C181.749 22.6061 181.591 23.4205 181.277 24.0909C180.963 24.7614 180.535 25.2727 179.993 25.625C179.451 25.9773 178.838 26.1534 178.152 26.1534C177.652 26.1534 177.237 26.0701 176.908 25.9034C176.578 25.7367 176.313 25.536 176.112 25.3011C175.915 25.0625 175.762 24.8371 175.652 24.625H175.567V29.2727H173.51ZM175.527 21.6364C175.527 22.2008 175.607 22.6951 175.766 23.1193C175.929 23.5436 176.161 23.875 176.464 24.1136C176.771 24.3485 177.143 24.4659 177.578 24.4659C178.033 24.4659 178.413 24.3447 178.72 24.1023C179.027 23.8561 179.258 23.5208 179.413 23.0966C179.572 22.6686 179.652 22.1818 179.652 21.6364C179.652 21.0947 179.574 20.6136 179.419 20.1932C179.264 19.7727 179.033 19.4432 178.726 19.2045C178.419 18.9659 178.036 18.8466 177.578 18.8466C177.139 18.8466 176.766 18.9621 176.459 19.1932C176.152 19.4242 175.919 19.7481 175.76 20.1648C175.605 20.5814 175.527 21.072 175.527 21.6364ZM186.749 26.1534C186.063 26.1534 185.449 25.9773 184.908 25.625C184.366 25.2727 183.938 24.7614 183.624 24.0909C183.309 23.4205 183.152 22.6061 183.152 21.6477C183.152 20.678 183.311 19.8598 183.629 19.1932C183.951 18.5227 184.385 18.017 184.93 17.6761C185.476 17.3314 186.084 17.1591 186.754 17.1591C187.266 17.1591 187.686 17.2462 188.016 17.4205C188.345 17.5909 188.607 17.7973 188.8 18.0398C188.993 18.2784 189.143 18.5038 189.249 18.7159H189.334V14.3636H191.396V26H189.374V24.625H189.249C189.143 24.8371 188.989 25.0625 188.788 25.3011C188.588 25.536 188.322 25.7367 187.993 25.9034C187.663 26.0701 187.249 26.1534 186.749 26.1534ZM187.322 24.4659C187.758 24.4659 188.129 24.3485 188.436 24.1136C188.743 23.875 188.976 23.5436 189.135 23.1193C189.294 22.6951 189.374 22.2008 189.374 21.6364C189.374 21.072 189.294 20.5814 189.135 20.1648C188.98 19.7481 188.749 19.4242 188.442 19.1932C188.139 18.9621 187.766 18.8466 187.322 18.8466C186.864 18.8466 186.482 18.9659 186.175 19.2045C185.868 19.4432 185.637 19.7727 185.482 20.1932C185.326 20.6136 185.249 21.0947 185.249 21.6364C185.249 22.1818 185.326 22.6686 185.482 23.0966C185.641 23.5208 185.874 23.8561 186.18 24.1023C186.491 24.3447 186.872 24.4659 187.322 24.4659ZM198.009 17.2727V18.8636H192.849V17.2727H198.009ZM194.139 26V16.4489C194.139 15.8617 194.26 15.3731 194.503 14.983C194.749 14.5928 195.079 14.3011 195.491 14.108C195.904 13.9148 196.363 13.8182 196.866 13.8182C197.223 13.8182 197.539 13.8466 197.815 13.9034C198.092 13.9602 198.296 14.0114 198.429 14.0568L198.02 15.6477C197.933 15.6212 197.823 15.5947 197.69 15.5682C197.558 15.5379 197.41 15.5227 197.247 15.5227C196.865 15.5227 196.594 15.6155 196.435 15.8011C196.279 15.983 196.202 16.2443 196.202 16.5852V26H194.139ZM203.29 21.2557C203.29 22.6723 203.1 23.9773 202.722 25.1705C202.347 26.3598 201.786 27.4602 201.04 28.4716H199.102C199.394 28.0966 199.663 27.6383 199.909 27.0966C200.159 26.5549 200.375 25.9602 200.557 25.3125C200.742 24.6648 200.886 23.9943 200.989 23.3011C201.095 22.608 201.148 21.9261 201.148 21.2557C201.148 20.358 201.057 19.4489 200.875 18.5284C200.697 17.608 200.453 16.7538 200.142 15.9659C199.835 15.178 199.489 14.5341 199.102 14.0341H201.04C201.786 15.0455 202.347 16.1477 202.722 17.3409C203.1 18.5303 203.29 19.8352 203.29 21.2557Z" fill="#18181C"/>
</svg>
