<svg width="211" height="40" viewBox="0 0 211 40" fill="none" xmlns="http://www.w3.org/2000/svg">
<rect x="0.5" width="210" height="40" rx="2" fill="#DFDFE0"/>
<path d="M21.1666 14.0007C21.1666 13.6325 20.8681 13.334 20.4999 13.334C20.1317 13.334 19.8333 13.6325 19.8333 14.0007V20.3912L17.638 18.1959C17.3776 17.9356 16.9555 17.9356 16.6952 18.1959C16.4348 18.4563 16.4348 18.8784 16.6952 19.1387L20.0285 22.4721C20.2889 22.7324 20.711 22.7324 20.9713 22.4721L24.3047 19.1387C24.565 18.8784 24.565 18.4563 24.3047 18.1959C24.0443 17.9356 23.6222 17.9356 23.3618 18.1959L21.1666 20.3912V14.0007Z" fill="#18181C"/>
<path d="M14.4999 21.334C14.8681 21.334 15.1666 21.6325 15.1666 22.0007V22.8007C15.1666 23.3717 15.1671 23.7599 15.1916 24.06C15.2155 24.3522 15.2588 24.5017 15.3119 24.606C15.4397 24.8569 15.6437 25.0608 15.8946 25.1887C15.9989 25.2418 16.1483 25.2851 16.4406 25.309C16.7407 25.3335 17.1289 25.334 17.6999 25.334H23.2999C23.871 25.334 24.2592 25.3335 24.5592 25.309C24.8515 25.2851 25.001 25.2418 25.1052 25.1887C25.3561 25.0608 25.5601 24.8569 25.6879 24.606C25.7411 24.5017 25.7843 24.3522 25.8082 24.06C25.8327 23.7599 25.8333 23.3717 25.8333 22.8007V22.0007C25.8333 21.6325 26.1317 21.334 26.4999 21.334C26.8681 21.334 27.1666 21.6325 27.1666 22.0007V22.8282C27.1666 23.3648 27.1666 23.8077 27.1371 24.1685C27.1065 24.5433 27.0408 24.8877 26.8759 25.2113C26.6203 25.7131 26.2123 26.121 25.7106 26.3767C25.387 26.5415 25.0425 26.6072 24.6678 26.6379C24.307 26.6673 23.8641 26.6673 23.3275 26.6673H17.6724C17.1357 26.6673 16.6928 26.6673 16.332 26.6379C15.9573 26.6072 15.6128 26.5415 15.2893 26.3767C14.7875 26.121 14.3796 25.7131 14.1239 25.2113C13.959 24.8877 13.8933 24.5433 13.8627 24.1685C13.8332 23.8077 13.8332 23.3648 13.8333 22.8282V22.0007C13.8333 21.6325 14.1317 21.334 14.4999 21.334Z" fill="#18181C"/>
<path d="M37.1364 16.1307V14.3636H46.4205V16.1307H42.8239V26H40.733V16.1307H37.1364ZM50.6605 26.1705C49.8082 26.1705 49.0696 25.983 48.4446 25.608C47.8196 25.233 47.3348 24.7083 46.9901 24.0341C46.6491 23.3598 46.4787 22.572 46.4787 21.6705C46.4787 20.7689 46.6491 19.9792 46.9901 19.3011C47.3348 18.6231 47.8196 18.0966 48.4446 17.7216C49.0696 17.3466 49.8082 17.1591 50.6605 17.1591C51.5128 17.1591 52.2514 17.3466 52.8764 17.7216C53.5014 18.0966 53.9844 18.6231 54.3253 19.3011C54.67 19.9792 54.8423 20.7689 54.8423 21.6705C54.8423 22.572 54.67 23.3598 54.3253 24.0341C53.9844 24.7083 53.5014 25.233 52.8764 25.608C52.2514 25.983 51.5128 26.1705 50.6605 26.1705ZM50.6719 24.5227C51.134 24.5227 51.5204 24.3958 51.831 24.142C52.1416 23.8845 52.3726 23.5398 52.5241 23.108C52.6795 22.6761 52.7571 22.1951 52.7571 21.6648C52.7571 21.1307 52.6795 20.6477 52.5241 20.2159C52.3726 19.7803 52.1416 19.4337 51.831 19.1761C51.5204 18.9186 51.134 18.7898 50.6719 18.7898C50.1984 18.7898 49.8045 18.9186 49.4901 19.1761C49.1795 19.4337 48.9465 19.7803 48.7912 20.2159C48.6397 20.6477 48.5639 21.1307 48.5639 21.6648C48.5639 22.1951 48.6397 22.6761 48.7912 23.108C48.9465 23.5398 49.1795 23.8845 49.4901 24.142C49.8045 24.3958 50.1984 24.5227 50.6719 24.5227ZM62.1506 22.3295V17.2727H64.2074V26H62.2131V24.4489H62.1222C61.9252 24.9375 61.6013 25.3371 61.1506 25.6477C60.7036 25.9583 60.1525 26.1136 59.4972 26.1136C58.9252 26.1136 58.4195 25.9867 57.9801 25.733C57.5445 25.4754 57.2036 25.1023 56.9574 24.6136C56.7112 24.1212 56.5881 23.5265 56.5881 22.8295V17.2727H58.6449V22.5114C58.6449 23.0644 58.7964 23.5038 59.0994 23.8295C59.4025 24.1553 59.8002 24.3182 60.2926 24.3182C60.5956 24.3182 60.8892 24.2443 61.1733 24.0966C61.4574 23.9489 61.6903 23.7292 61.8722 23.4375C62.0578 23.142 62.1506 22.7727 62.1506 22.3295ZM70.6804 17.2727V18.8636H65.6634V17.2727H70.6804ZM66.902 15.1818H68.9588V23.375C68.9588 23.6515 69.0005 23.8636 69.0838 24.0114C69.1709 24.1553 69.2846 24.2538 69.4247 24.3068C69.5649 24.3598 69.7202 24.3864 69.8906 24.3864C70.0194 24.3864 70.1368 24.3769 70.2429 24.358C70.3527 24.339 70.4361 24.322 70.4929 24.3068L70.8395 25.9148C70.7296 25.9527 70.5724 25.9943 70.3679 26.0398C70.1671 26.0852 69.9209 26.1117 69.6293 26.1193C69.1141 26.1345 68.6501 26.0568 68.2372 25.8864C67.8243 25.7121 67.4967 25.4432 67.2543 25.0795C67.0156 24.7159 66.8982 24.2614 66.902 23.7159V15.1818ZM80.233 26.1705C79.358 26.1705 78.6023 25.9886 77.9659 25.625C77.3333 25.2576 76.8466 24.7386 76.5057 24.0682C76.1648 23.3939 75.9943 22.6004 75.9943 21.6875C75.9943 20.7898 76.1648 20.0019 76.5057 19.3239C76.8504 18.642 77.3314 18.1117 77.9489 17.733C78.5663 17.3504 79.2917 17.1591 80.125 17.1591C80.6629 17.1591 81.1705 17.2462 81.6477 17.4205C82.1288 17.5909 82.553 17.8561 82.9205 18.2159C83.2917 18.5758 83.5833 19.0341 83.7955 19.5909C84.0076 20.1439 84.1136 20.803 84.1136 21.5682V22.1989H76.9602V20.8125H82.142C82.1383 20.4186 82.053 20.0682 81.8864 19.7614C81.7197 19.4508 81.4867 19.2064 81.1875 19.0284C80.892 18.8504 80.5473 18.7614 80.1534 18.7614C79.733 18.7614 79.3636 18.8636 79.0455 19.0682C78.7273 19.2689 78.4792 19.5341 78.3011 19.8636C78.1269 20.1894 78.0379 20.5473 78.0341 20.9375V22.1477C78.0341 22.6553 78.1269 23.0909 78.3125 23.4545C78.4981 23.8144 78.7576 24.0909 79.0909 24.2841C79.4242 24.4735 79.8144 24.5682 80.2614 24.5682C80.5606 24.5682 80.8314 24.5265 81.0739 24.4432C81.3163 24.3561 81.5265 24.2292 81.7045 24.0625C81.8826 23.8958 82.017 23.6894 82.108 23.4432L84.0284 23.6591C83.9072 24.1667 83.6761 24.6098 83.3352 24.9886C82.9981 25.3636 82.5663 25.6553 82.0398 25.8636C81.5133 26.0682 80.911 26.1705 80.233 26.1705ZM87.348 17.2727L89.1094 20.4943L90.8991 17.2727H93.0753L90.4446 21.6364L93.1207 26H90.956L89.1094 22.858L87.2798 26H85.098L87.7571 21.6364L85.1662 17.2727H87.348ZM94.6662 29.2727V17.2727H96.6889V18.7159H96.8082C96.9143 18.5038 97.0639 18.2784 97.2571 18.0398C97.4503 17.7973 97.7116 17.5909 98.0412 17.4205C98.3707 17.2462 98.7912 17.1591 99.3026 17.1591C99.9768 17.1591 100.585 17.3314 101.126 17.6761C101.672 18.017 102.104 18.5227 102.422 19.1932C102.744 19.8598 102.905 20.678 102.905 21.6477C102.905 22.6061 102.748 23.4205 102.433 24.0909C102.119 24.7614 101.691 25.2727 101.149 25.625C100.607 25.9773 99.9938 26.1534 99.3082 26.1534C98.8082 26.1534 98.3935 26.0701 98.0639 25.9034C97.7344 25.7367 97.4692 25.536 97.2685 25.3011C97.0715 25.0625 96.9181 24.8371 96.8082 24.625H96.723V29.2727H94.6662ZM96.6832 21.6364C96.6832 22.2008 96.7628 22.6951 96.9219 23.1193C97.0848 23.5436 97.3177 23.875 97.6207 24.1136C97.9276 24.3485 98.2988 24.4659 98.7344 24.4659C99.1889 24.4659 99.5696 24.3447 99.8764 24.1023C100.183 23.8561 100.414 23.5208 100.57 23.0966C100.729 22.6686 100.808 22.1818 100.808 21.6364C100.808 21.0947 100.731 20.6136 100.575 20.1932C100.42 19.7727 100.189 19.4432 99.8821 19.2045C99.5753 18.9659 99.1927 18.8466 98.7344 18.8466C98.295 18.8466 97.9219 18.9621 97.6151 19.1932C97.3082 19.4242 97.0753 19.7481 96.9162 20.1648C96.7609 20.5814 96.6832 21.072 96.6832 21.6364ZM108.473 26.1705C107.621 26.1705 106.882 25.983 106.257 25.608C105.632 25.233 105.147 24.7083 104.803 24.0341C104.462 23.3598 104.291 22.572 104.291 21.6705C104.291 20.7689 104.462 19.9792 104.803 19.3011C105.147 18.6231 105.632 18.0966 106.257 17.7216C106.882 17.3466 107.621 17.1591 108.473 17.1591C109.325 17.1591 110.064 17.3466 110.689 17.7216C111.314 18.0966 111.797 18.6231 112.138 19.3011C112.482 19.9792 112.655 20.7689 112.655 21.6705C112.655 22.572 112.482 23.3598 112.138 24.0341C111.797 24.7083 111.314 25.233 110.689 25.608C110.064 25.983 109.325 26.1705 108.473 26.1705ZM108.484 24.5227C108.946 24.5227 109.333 24.3958 109.643 24.142C109.954 23.8845 110.185 23.5398 110.337 23.108C110.492 22.6761 110.57 22.1951 110.57 21.6648C110.57 21.1307 110.492 20.6477 110.337 20.2159C110.185 19.7803 109.954 19.4337 109.643 19.1761C109.333 18.9186 108.946 18.7898 108.484 18.7898C108.011 18.7898 107.617 18.9186 107.303 19.1761C106.992 19.4337 106.759 19.7803 106.604 20.2159C106.452 20.6477 106.376 21.1307 106.376 21.6648C106.376 22.1951 106.452 22.6761 106.604 23.108C106.759 23.5398 106.992 23.8845 107.303 24.142C107.617 24.3958 108.011 24.5227 108.484 24.5227ZM114.401 26V17.2727H116.395V18.7273H116.486C116.645 18.2235 116.918 17.8352 117.304 17.5625C117.694 17.286 118.139 17.1477 118.639 17.1477C118.753 17.1477 118.88 17.1534 119.02 17.1648C119.164 17.1723 119.283 17.1856 119.378 17.2045V19.0966C119.291 19.0663 119.152 19.0398 118.963 19.017C118.777 18.9905 118.598 18.9773 118.423 18.9773C118.048 18.9773 117.711 19.0587 117.412 19.2216C117.116 19.3807 116.884 19.6023 116.713 19.8864C116.543 20.1705 116.457 20.4981 116.457 20.8693V26H114.401ZM125.571 17.2727V18.8636H120.554V17.2727H125.571ZM121.793 15.1818H123.849V23.375C123.849 23.6515 123.891 23.8636 123.974 24.0114C124.062 24.1553 124.175 24.2538 124.315 24.3068C124.455 24.3598 124.611 24.3864 124.781 24.3864C124.91 24.3864 125.027 24.3769 125.134 24.358C125.243 24.339 125.327 24.322 125.384 24.3068L125.73 25.9148C125.62 25.9527 125.463 25.9943 125.259 26.0398C125.058 26.0852 124.812 26.1117 124.52 26.1193C124.005 26.1345 123.541 26.0568 123.128 25.8864C122.715 25.7121 122.387 25.4432 122.145 25.0795C121.906 24.7159 121.789 24.2614 121.793 23.7159V15.1818ZM131.061 26.1705C130.186 26.1705 129.43 25.9886 128.794 25.625C128.161 25.2576 127.675 24.7386 127.334 24.0682C126.993 23.3939 126.822 22.6004 126.822 21.6875C126.822 20.7898 126.993 20.0019 127.334 19.3239C127.679 18.642 128.16 18.1117 128.777 17.733C129.394 17.3504 130.12 17.1591 130.953 17.1591C131.491 17.1591 131.999 17.2462 132.476 17.4205C132.957 17.5909 133.381 17.8561 133.749 18.2159C134.12 18.5758 134.411 19.0341 134.624 19.5909C134.836 20.1439 134.942 20.803 134.942 21.5682V22.1989H127.788V20.8125H132.97C132.966 20.4186 132.881 20.0682 132.714 19.7614C132.548 19.4508 132.315 19.2064 132.016 19.0284C131.72 18.8504 131.375 18.7614 130.982 18.7614C130.561 18.7614 130.192 18.8636 129.874 19.0682C129.555 19.2689 129.307 19.5341 129.129 19.8636C128.955 20.1894 128.866 20.5473 128.862 20.9375V22.1477C128.862 22.6553 128.955 23.0909 129.141 23.4545C129.326 23.8144 129.586 24.0909 129.919 24.2841C130.252 24.4735 130.643 24.5682 131.089 24.5682C131.389 24.5682 131.66 24.5265 131.902 24.4432C132.144 24.3561 132.355 24.2292 132.533 24.0625C132.711 23.8958 132.845 23.6894 132.936 23.4432L134.857 23.6591C134.735 24.1667 134.504 24.6098 134.163 24.9886C133.826 25.3636 133.394 25.6553 132.868 25.8636C132.341 26.0682 131.739 26.1705 131.061 26.1705ZM136.682 26V17.2727H138.676V18.7273H138.767C138.926 18.2235 139.199 17.8352 139.585 17.5625C139.975 17.286 140.42 17.1477 140.92 17.1477C141.034 17.1477 141.161 17.1534 141.301 17.1648C141.445 17.1723 141.564 17.1856 141.659 17.2045V19.0966C141.572 19.0663 141.434 19.0398 141.244 19.017C141.059 18.9905 140.879 18.9773 140.705 18.9773C140.33 18.9773 139.992 19.0587 139.693 19.2216C139.398 19.3807 139.165 19.6023 138.994 19.8864C138.824 20.1705 138.739 20.4981 138.739 20.8693V26H136.682ZM147.506 21.2557C147.506 19.8352 147.693 18.5303 148.068 17.3409C148.447 16.1477 149.009 15.0455 149.756 14.0341H151.693C151.405 14.4091 151.136 14.8693 150.886 15.4148C150.636 15.9564 150.419 16.5511 150.233 17.1989C150.051 17.8428 149.907 18.5114 149.801 19.2045C149.699 19.8977 149.648 20.5814 149.648 21.2557C149.648 22.1534 149.737 23.0625 149.915 23.983C150.097 24.9034 150.341 25.7557 150.648 26.5398C150.958 27.3277 151.307 27.9716 151.693 28.4716H149.756C149.009 27.4602 148.447 26.3598 148.068 25.1705C147.693 23.9773 147.506 22.6723 147.506 21.2557ZM154.558 26.125C154.214 26.125 153.918 26.0038 153.672 25.7614C153.426 25.5189 153.304 25.2235 153.308 24.875C153.304 24.5341 153.426 24.2424 153.672 24C153.918 23.7576 154.214 23.6364 154.558 23.6364C154.892 23.6364 155.181 23.7576 155.428 24C155.678 24.2424 155.804 24.5341 155.808 24.875C155.804 25.1061 155.744 25.3163 155.626 25.5057C155.513 25.6951 155.361 25.8466 155.172 25.9602C154.986 26.0701 154.782 26.125 154.558 26.125ZM159.614 17.2727L161.375 20.4943L163.165 17.2727H165.341L162.71 21.6364L165.386 26H163.222L161.375 22.858L159.545 26H157.364L160.023 21.6364L157.432 17.2727H159.614ZM168.989 14.3636V26H166.932V14.3636H168.989ZM178.001 19.5795L176.126 19.7841C176.073 19.5947 175.981 19.4167 175.848 19.25C175.719 19.0833 175.545 18.9489 175.325 18.8466C175.106 18.7443 174.837 18.6932 174.518 18.6932C174.09 18.6932 173.731 18.786 173.439 18.9716C173.151 19.1572 173.009 19.3977 173.013 19.6932C173.009 19.947 173.102 20.1534 173.291 20.3125C173.484 20.4716 173.803 20.6023 174.246 20.7045L175.734 21.0227C176.56 21.2008 177.174 21.483 177.575 21.8693C177.981 22.2557 178.185 22.7614 178.189 23.3864C178.185 23.9356 178.024 24.4205 177.706 24.8409C177.392 25.2576 176.954 25.5833 176.393 25.8182C175.833 26.053 175.189 26.1705 174.462 26.1705C173.393 26.1705 172.534 25.947 171.882 25.5C171.231 25.0492 170.842 24.4223 170.717 23.6193L172.723 23.4261C172.814 23.8201 173.007 24.1174 173.303 24.3182C173.598 24.5189 173.982 24.6193 174.456 24.6193C174.945 24.6193 175.337 24.5189 175.632 24.3182C175.931 24.1174 176.081 23.8693 176.081 23.5739C176.081 23.3239 175.984 23.1174 175.791 22.9545C175.602 22.7917 175.306 22.6667 174.905 22.5795L173.416 22.267C172.579 22.0928 171.96 21.7992 171.558 21.3864C171.157 20.9697 170.958 20.4432 170.962 19.8068C170.958 19.2689 171.104 18.803 171.399 18.4091C171.698 18.0114 172.113 17.7045 172.643 17.4886C173.178 17.2689 173.793 17.1591 174.49 17.1591C175.513 17.1591 176.318 17.3769 176.905 17.8125C177.496 18.2481 177.861 18.8371 178.001 19.5795ZM181.567 17.2727L183.328 20.4943L185.118 17.2727H187.294L184.663 21.6364L187.339 26H185.175L183.328 22.858L181.499 26H179.317L181.976 21.6364L179.385 17.2727H181.567ZM192.555 21.2557C192.555 22.6723 192.366 23.9773 191.987 25.1705C191.612 26.3598 191.052 27.4602 190.305 28.4716H188.368C188.66 28.0966 188.929 27.6383 189.175 27.0966C189.425 26.5549 189.641 25.9602 189.822 25.3125C190.008 24.6648 190.152 23.9943 190.254 23.3011C190.36 22.608 190.413 21.9261 190.413 21.2557C190.413 20.358 190.322 19.4489 190.141 18.5284C189.963 17.608 189.718 16.7538 189.408 15.9659C189.101 15.178 188.754 14.5341 188.368 14.0341H190.305C191.052 15.0455 191.612 16.1477 191.987 17.3409C192.366 18.5303 192.555 19.8352 192.555 21.2557Z" fill="#18181C"/>
</svg>
