<svg width="24" height="24" viewBox="0 0 24 24" fill="none" xmlns="http://www.w3.org/2000/svg">
<rect width="24" height="24" rx="4" fill="#F24E1E"/>
<path d="M4.50568 15V9.18182H6.80114C7.24242 9.18182 7.61837 9.2661 7.92898 9.43466C8.23958 9.60133 8.47633 9.83333 8.6392 10.1307C8.80398 10.4261 8.88636 10.767 8.88636 11.1534C8.88636 11.5398 8.80303 11.8807 8.63636 12.1761C8.4697 12.4716 8.22822 12.7017 7.91193 12.8665C7.59754 13.0312 7.21686 13.1136 6.76989 13.1136H5.30682V12.1278H6.57102C6.80777 12.1278 7.00284 12.0871 7.15625 12.0057C7.31155 11.9223 7.42708 11.8078 7.50284 11.6619C7.58049 11.5142 7.61932 11.3447 7.61932 11.1534C7.61932 10.9602 7.58049 10.7917 7.50284 10.6477C7.42708 10.5019 7.31155 10.3892 7.15625 10.3097C7.00095 10.2282 6.80398 10.1875 6.56534 10.1875H5.7358V15H4.50568ZM11.7879 15H9.72537V9.18182H11.8049C12.3901 9.18182 12.8939 9.2983 13.3163 9.53125C13.7386 9.76231 14.0634 10.0947 14.2907 10.5284C14.5199 10.9621 14.6345 11.4811 14.6345 12.0852C14.6345 12.6913 14.5199 13.2121 14.2907 13.6477C14.0634 14.0833 13.7367 14.4176 13.3106 14.6506C12.8864 14.8835 12.3788 15 11.7879 15ZM10.9555 13.946H11.7367C12.1004 13.946 12.4062 13.8816 12.6543 13.7528C12.9043 13.6222 13.0918 13.4205 13.2168 13.1477C13.3437 12.8731 13.4072 12.5189 13.4072 12.0852C13.4072 11.6553 13.3437 11.304 13.2168 11.0312C13.0918 10.7585 12.9053 10.5578 12.6572 10.429C12.4091 10.3002 12.1032 10.2358 11.7396 10.2358H10.9555V13.946ZM15.5857 15V9.18182H19.438V10.196H16.8158V11.5824H19.1823V12.5966H16.8158V15H15.5857Z" fill="white"/>
</svg>
