<svg width="12" height="16" viewBox="0 0 12 16" fill="none" xmlns="http://www.w3.org/2000/svg">
<path fill-rule="evenodd" clip-rule="evenodd" d="M6.66667 1.34337C6.66667 1.32584 6.66667 1.31707 6.66591 1.30117C6.65018 0.971985 6.3607 0.682641 6.03151 0.667067C6.01562 0.666316 6.0104 0.666318 6.00001 0.666321H6H3.8391H3.83908C3.30246 0.666314 2.85957 0.666308 2.49878 0.695785C2.12405 0.726402 1.77958 0.792112 1.45603 0.956972C0.954261 1.21263 0.546313 1.62058 0.290651 2.12235C0.12579 2.44591 0.0600808 2.79037 0.029464 3.16511C-1.33465e-05 3.52589 -7.20548e-06 3.96879 2.35442e-07 4.50542V4.50545V11.4939V11.4939C-7.20548e-06 12.0305 -1.3347e-05 12.4734 0.029464 12.8342C0.0600808 13.2089 0.12579 13.5534 0.290651 13.877C0.546313 14.3787 0.954261 14.7867 1.45603 15.0423C1.77958 15.2072 2.12405 15.2729 2.49878 15.3035C2.85958 15.333 3.30248 15.333 3.83912 15.333H8.16088C8.69752 15.333 9.14043 15.333 9.50122 15.3035C9.87595 15.2729 10.2204 15.2072 10.544 15.0423C11.0457 14.7867 11.4537 14.3787 11.7094 13.877C11.8742 13.5534 11.9399 13.2089 11.9705 12.8342C12 12.4734 12 12.0305 12 11.4939V6.66628V6.66626C12 6.65592 12 6.65074 11.9993 6.63487C11.9837 6.30564 11.6943 6.01613 11.3651 6.00042C11.3492 5.99966 11.3405 5.99966 11.323 5.99966L8.37873 5.99966C8.21048 5.99968 8.04662 5.9997 7.90785 5.98836C7.75546 5.97591 7.57563 5.94654 7.39468 5.85434C7.1438 5.72651 6.93983 5.52253 6.812 5.27165C6.7198 5.0907 6.69042 4.91088 6.67797 4.75848C6.66663 4.61972 6.66665 4.45586 6.66667 4.28762V4.28759L6.66667 1.34337ZM10.6053 4.66632C10.8011 4.66632 10.8989 4.66632 10.9791 4.61717C11.0923 4.54775 11.16 4.38421 11.129 4.25508C11.107 4.16364 11.0432 4.09987 10.9155 3.97234L8.69398 1.7508C8.56645 1.62314 8.50268 1.55932 8.41124 1.53734C8.28211 1.5063 8.11858 1.57399 8.04916 1.68721C8 1.76739 8 1.86527 8 2.06101L8 4.13296C8 4.31964 8 4.41298 8.03633 4.48428C8.06829 4.547 8.11928 4.59799 8.182 4.62995C8.2533 4.66628 8.34665 4.66629 8.53333 4.66629L10.6053 4.66632ZM3.33333 5.99965C2.96514 5.99965 2.66667 6.29813 2.66667 6.66632C2.66667 7.03451 2.96514 7.33299 3.33333 7.33299H4.66667C5.03486 7.33299 5.33333 7.03451 5.33333 6.66632C5.33333 6.29813 5.03486 5.99965 4.66667 5.99965H3.33333ZM2.66667 9.33299C2.66667 8.9648 2.96514 8.66632 3.33333 8.66632H8.66667C9.03486 8.66632 9.33333 8.9648 9.33333 9.33299C9.33333 9.70118 9.03486 9.99966 8.66667 9.99966H3.33333C2.96514 9.99966 2.66667 9.70118 2.66667 9.33299ZM2.66667 11.9997C2.66667 11.6315 2.96514 11.333 3.33333 11.333H8.66667C9.03486 11.333 9.33333 11.6315 9.33333 11.9997C9.33333 12.3678 9.03486 12.6663 8.66667 12.6663H3.33333C2.96514 12.6663 2.66667 12.3678 2.66667 11.9997Z" fill="#949AE5"/>
</svg>
