<svg width="16" height="16" viewBox="0 0 16 16" fill="none" xmlns="http://www.w3.org/2000/svg">
<path d="M5.17239 1.33301H6.66659C7.03478 1.33301 7.33325 1.63149 7.33325 1.99968C7.33325 2.36787 7.03478 2.66634 6.66659 2.66634H5.19992C4.62887 2.66634 4.24067 2.66686 3.94061 2.69138C3.64833 2.71526 3.49887 2.75854 3.3946 2.81167C3.14372 2.9395 2.93974 3.14347 2.81191 3.39435C2.75878 3.49862 2.7155 3.64809 2.69162 3.94037C2.6671 4.24043 2.66659 4.62862 2.66659 5.19968V10.7997C2.66659 11.3707 2.6671 11.7589 2.69162 12.059C2.7155 12.3513 2.75878 12.5007 2.81191 12.605C2.93974 12.8559 3.14372 13.0599 3.3946 13.1877C3.49887 13.2408 3.64833 13.2841 3.94061 13.308C4.24067 13.3325 4.62887 13.333 5.19992 13.333H10.7999C11.371 13.333 11.7592 13.3325 12.0592 13.308C12.3515 13.2841 12.501 13.2408 12.6052 13.1877C12.8561 13.0599 13.0601 12.8559 13.1879 12.605C13.2411 12.5007 13.2843 12.3513 13.3082 12.059C13.3327 11.7589 13.3333 11.3707 13.3333 10.7997V9.33301C13.3333 8.96482 13.6317 8.66634 13.9999 8.66634C14.3681 8.66634 14.6666 8.96482 14.6666 9.33301V10.8272C14.6666 11.3639 14.6666 11.8068 14.6371 12.1676C14.6065 12.5423 14.5408 12.8868 14.3759 13.2103C14.1203 13.7121 13.7123 14.12 13.2106 14.3757C12.887 14.5406 12.5425 14.6063 12.1678 14.6369C11.807 14.6664 11.3641 14.6664 10.8275 14.6663H5.17237C4.63573 14.6664 4.19283 14.6664 3.83204 14.6369C3.4573 14.6063 3.11284 14.5406 2.78928 14.3757C2.28751 14.12 1.87956 13.7121 1.6239 13.2103C1.45904 12.8868 1.39333 12.5423 1.36272 12.1676C1.33324 11.8068 1.33324 11.3639 1.33325 10.8272V5.17214C1.33324 4.6355 1.33324 4.19259 1.36272 3.83179C1.39333 3.45706 1.45904 3.11259 1.6239 2.78903C1.87956 2.28727 2.28751 1.87932 2.78928 1.62366C3.11284 1.4588 3.4573 1.39309 3.83204 1.36247C4.19283 1.33299 4.63574 1.333 5.17239 1.33301Z" fill="#3E4517"/>
<path d="M9.33325 1.99967C9.33325 1.63148 9.63173 1.33301 9.99992 1.33301H13.9999C14.3681 1.33301 14.6666 1.63148 14.6666 1.99967L14.6666 5.99967C14.6666 6.36786 14.3681 6.66634 13.9999 6.66634C13.6317 6.66634 13.3333 6.36787 13.3333 5.99968L13.3333 3.60915L8.47132 8.47108C8.21097 8.73143 7.78886 8.73143 7.52851 8.47108C7.26816 8.21073 7.26816 7.78862 7.52851 7.52827L12.3904 2.66634H9.99992C9.63173 2.66634 9.33325 2.36786 9.33325 1.99967Z" fill="#3E4517"/>
</svg>
