<svg width="16" height="16" viewBox="0 0 16 16" fill="none" xmlns="http://www.w3.org/2000/svg">
<path d="M4.10757 2H11.8923C12.2437 1.99999 12.5469 1.99998 12.7966 2.02038C13.0602 2.04192 13.3223 2.08946 13.5746 2.21799C13.9509 2.40974 14.2569 2.7157 14.4486 3.09202C14.5771 3.34427 14.6247 3.60642 14.6462 3.86998C14.6666 4.11969 14.6666 4.42287 14.6666 4.77429V8.9333C14.6666 9.30667 14.6666 9.49335 14.5939 9.63596C14.53 9.7614 14.428 9.86339 14.3026 9.9273C14.16 9.99996 13.9733 9.99996 13.5999 9.99996H10.4418L10.4077 9.9999C10.2811 9.99957 10.1217 9.99914 9.96481 10.0368C9.82876 10.0695 9.6987 10.1233 9.57941 10.1964C9.44184 10.2807 9.32941 10.3938 9.24012 10.4835C9.12231 10.6015 8.96079 10.665 8.79407 10.665H7.20579C7.03907 10.665 6.87754 10.6015 6.75973 10.4835C6.67045 10.3938 6.55802 10.2807 6.42045 10.1964C6.30115 10.1233 6.17109 10.0695 6.03505 10.0368C5.87816 9.99914 5.71873 9.99957 5.59213 9.9999L5.5581 9.99996H2.39993C2.02656 9.99996 1.83988 9.99996 1.69727 9.9273C1.57183 9.86339 1.46984 9.7614 1.40592 9.63596C1.33326 9.49335 1.33326 9.30667 1.33326 8.9333L1.33326 4.7743C1.33325 4.42287 1.33324 4.1197 1.35364 3.86998C1.37518 3.60642 1.42272 3.34427 1.55125 3.09202C1.743 2.7157 2.04896 2.40974 2.42528 2.21799C2.67753 2.08946 2.93968 2.04192 3.20324 2.02038C3.45295 1.99998 3.75615 1.99999 4.10757 2Z" fill="#3E4517"/>
<path d="M1.68923 11.3336C1.32793 11.3335 1.14727 11.3335 0.994234 11.4202C0.875089 11.4877 0.7499 11.633 0.700741 11.7609C0.637596 11.9251 0.659047 12.0681 0.701949 12.3542C0.71089 12.4138 0.721685 12.4692 0.734683 12.5177C0.919618 13.2079 1.45871 13.7469 2.1489 13.9319C2.40592 14.0007 2.69794 14.0004 3.03642 14.0001H12.9633C13.3018 14.0004 13.5938 14.0007 13.8508 13.9319C14.541 13.7469 15.0801 13.2079 15.2651 12.5177C15.278 12.4694 15.2887 12.4141 15.2976 12.3544C15.3401 12.0677 15.3613 11.9243 15.298 11.7603C15.2487 11.6325 15.1236 11.4876 15.0044 11.4202C14.8514 11.3336 14.6706 11.3337 14.3089 11.334L10.5308 11.3365C10.3662 11.3366 10.2094 11.3999 10.0931 11.5164C10.0038 11.6061 9.89136 11.7192 9.75378 11.8035C9.63449 11.8766 9.50443 11.9305 9.36838 11.9631C9.2115 12.0008 9.05207 12.0004 8.92547 12L8.89143 12H7.10842L7.0744 12C6.94779 12.0004 6.78836 12.0008 6.63148 11.9631C6.49543 11.9305 6.36537 11.8766 6.24607 11.8035C6.1085 11.7192 5.99608 11.6062 5.90679 11.5164C5.78911 11.3983 5.62746 11.3349 5.46073 11.3348L1.68923 11.3336Z" fill="#3E4517"/>
</svg>
