<svg width="16" height="16" viewBox="0 0 16 16" fill="none" xmlns="http://www.w3.org/2000/svg">
<path fill-rule="evenodd" clip-rule="evenodd" d="M3.33301 2.66665C2.96482 2.66665 2.66634 2.96512 2.66634 3.33331C2.66634 3.7015 2.96482 3.99998 3.33301 3.99998L12.6663 3.99998C13.7709 3.99998 14.6663 4.89541 14.6663 5.99998V12.6666C14.6663 13.7712 13.7709 14.6666 12.6663 14.6666H3.33301C2.22844 14.6666 1.33301 13.7712 1.33301 12.6666V3.33331C1.33301 2.22874 2.22844 1.33331 3.33301 1.33331H11.333C11.7012 1.33331 11.9997 1.63179 11.9997 1.99998C11.9997 2.36817 11.7012 2.66665 11.333 2.66665H3.33301ZM10.9997 8.33331C10.4474 8.33331 9.99967 8.78103 9.99967 9.33331C9.99967 9.8856 10.4474 10.3333 10.9997 10.3333C11.552 10.3333 11.9997 9.8856 11.9997 9.33331C11.9997 8.78103 11.552 8.33331 10.9997 8.33331Z" fill="#3E4517"/>
</svg>
