<svg width="16" height="16" viewBox="0 0 16 16" fill="none" xmlns="http://www.w3.org/2000/svg">
<path fill-rule="evenodd" clip-rule="evenodd" d="M7.65131 0.890945C7.8795 0.829158 8.12003 0.829158 8.34823 0.890945C8.61314 0.962671 8.83617 1.13778 9.01418 1.27753C10.5498 2.48312 12.0949 3.67652 13.6373 4.87345C13.8884 5.06831 14.1096 5.23998 14.2744 5.46285C14.4191 5.65843 14.5268 5.87877 14.5924 6.11304C14.6671 6.37999 14.6668 6.65999 14.6665 6.97782C14.6648 8.61601 14.6664 10.2542 14.6664 11.8924C14.6664 12.2438 14.6665 12.547 14.6461 12.7967C14.6245 13.0603 14.577 13.3224 14.4484 13.5747C14.2567 13.951 13.9507 14.257 13.5744 14.4487C13.3222 14.5772 13.06 14.6248 12.7965 14.6463C12.2621 14.69 11.7201 14.6664 11.1843 14.6667C11.1049 14.6667 11.0101 14.6668 10.9265 14.6599C10.8297 14.652 10.6911 14.6317 10.5458 14.5577C10.3576 14.4618 10.2046 14.3088 10.1088 14.1207C10.0347 13.9754 10.0144 13.8367 10.0065 13.7399C9.9997 13.6564 9.99973 13.5615 9.99976 13.4821L10.005 9.75129C10.0055 9.37745 10.0058 9.19052 9.93322 9.04771C9.86937 8.92209 9.76736 8.81994 9.64183 8.75591C9.49912 8.68312 9.3122 8.68312 8.93835 8.68312H7.07178C6.69889 8.68312 6.51245 8.68312 6.36994 8.75565C6.24459 8.81945 6.14263 8.92127 6.07865 9.04653C6.00591 9.18893 6.00565 9.37537 6.00511 9.74826L5.99977 13.4821C5.9998 13.5615 5.99984 13.6564 5.99301 13.7399C5.9851 13.8367 5.96481 13.9754 5.89077 14.1207C5.7949 14.3088 5.64192 14.4618 5.45376 14.5577C5.30846 14.6317 5.1698 14.652 5.07299 14.6599C4.98944 14.6668 4.89461 14.6667 4.8152 14.6667C4.27941 14.6664 3.73743 14.69 3.20308 14.6463C2.93952 14.6248 2.67737 14.5772 2.42512 14.4487C2.0488 14.257 1.74283 13.951 1.55109 13.5747C1.42256 13.3224 1.37501 13.0603 1.35348 12.7967C1.33308 12.547 1.33309 12.2438 1.3331 11.8924C1.3331 10.2542 1.33482 8.61601 1.33305 6.97782C1.33271 6.65999 1.33241 6.37999 1.40713 6.11304C1.4727 5.87877 1.58047 5.65843 1.72513 5.46285C1.88997 5.23998 2.11118 5.06831 2.36226 4.87346C3.90455 3.67657 5.44984 2.48309 6.98535 1.27753C7.16336 1.13778 7.38639 0.962671 7.65131 0.890945Z" fill="#3E4517"/>
</svg>
