<svg width="16" height="16" viewBox="0 0 16 16" fill="none" xmlns="http://www.w3.org/2000/svg">
<path fill-rule="evenodd" clip-rule="evenodd" d="M8.66667 1.34337C8.66667 1.32584 8.66667 1.31707 8.66591 1.30117C8.65018 0.971985 8.3607 0.682641 8.03151 0.667067C8.01562 0.666316 8.0104 0.666318 8.00001 0.666321H8H5.8391H5.83908C5.30246 0.666314 4.85957 0.666308 4.49878 0.695785C4.12405 0.726402 3.77958 0.792112 3.45603 0.956972C2.95426 1.21263 2.54631 1.62058 2.29065 2.12235C2.12579 2.44591 2.06008 2.79037 2.02946 3.16511C1.99999 3.52589 1.99999 3.96879 2 4.50542V4.50545V11.4939V11.4939C1.99999 12.0305 1.99999 12.4734 2.02946 12.8342C2.06008 13.2089 2.12579 13.5534 2.29065 13.877C2.54631 14.3787 2.95426 14.7867 3.45603 15.0423C3.77958 15.2072 4.12405 15.2729 4.49878 15.3035C4.85958 15.333 5.30248 15.333 5.83912 15.333H10.1609C10.6975 15.333 11.1404 15.333 11.5012 15.3035C11.8759 15.2729 12.2204 15.2072 12.544 15.0423C13.0457 14.7867 13.4537 14.3787 13.7094 13.877C13.8742 13.5534 13.9399 13.2089 13.9705 12.8342C14 12.4734 14 12.0305 14 11.4939V6.66628V6.66626C14 6.65592 14 6.65074 13.9993 6.63487C13.9837 6.30564 13.6943 6.01613 13.3651 6.00042C13.3492 5.99966 13.3405 5.99966 13.323 5.99966L10.3787 5.99966C10.2105 5.99968 10.0466 5.9997 9.90785 5.98836C9.75546 5.97591 9.57563 5.94654 9.39468 5.85434C9.1438 5.72651 8.93983 5.52253 8.812 5.27165C8.7198 5.0907 8.69042 4.91088 8.67797 4.75848C8.66663 4.61972 8.66665 4.45586 8.66667 4.28762V4.28759L8.66667 1.34337ZM12.6053 4.66632C12.8011 4.66632 12.8989 4.66632 12.9791 4.61717C13.0923 4.54775 13.16 4.38421 13.129 4.25508C13.107 4.16364 13.0432 4.09987 12.9155 3.97234L10.694 1.7508C10.5665 1.62314 10.5027 1.55932 10.4112 1.53734C10.2821 1.5063 10.1186 1.57399 10.0492 1.68721C10 1.76739 10 1.86527 10 2.06101L10 4.13296C10 4.31964 10 4.41298 10.0363 4.48428C10.0683 4.547 10.1193 4.59799 10.182 4.62995C10.2533 4.66628 10.3466 4.66629 10.5333 4.66629L12.6053 4.66632ZM5.33333 5.99965C4.96514 5.99965 4.66667 6.29813 4.66667 6.66632C4.66667 7.03451 4.96514 7.33299 5.33333 7.33299H6.66667C7.03486 7.33299 7.33333 7.03451 7.33333 6.66632C7.33333 6.29813 7.03486 5.99965 6.66667 5.99965H5.33333ZM4.66667 9.33299C4.66667 8.9648 4.96514 8.66632 5.33333 8.66632H10.6667C11.0349 8.66632 11.3333 8.9648 11.3333 9.33299C11.3333 9.70118 11.0349 9.99966 10.6667 9.99966H5.33333C4.96514 9.99966 4.66667 9.70118 4.66667 9.33299ZM4.66667 11.9997C4.66667 11.6315 4.96514 11.333 5.33333 11.333H10.6667C11.0349 11.333 11.3333 11.6315 11.3333 11.9997C11.3333 12.3678 11.0349 12.6663 10.6667 12.6663H5.33333C4.96514 12.6663 4.66667 12.3678 4.66667 11.9997Z" fill="#3E4517"/>
</svg>
