<svg width="16" height="16" viewBox="0 0 16 16" fill="none" xmlns="http://www.w3.org/2000/svg">
<path d="M8.19559 0.595287C8.45594 0.334937 8.87805 0.334937 9.1384 0.595287C9.39875 0.855636 9.39875 1.27775 9.1384 1.5381L8.94048 1.73601C11.9924 2.19018 14.3337 4.8217 14.3337 8.00004C14.3337 10.1058 13.3053 11.9715 11.7262 13.1219C11.4286 13.3387 11.0116 13.2733 10.7948 12.9757C10.578 12.6781 10.6435 12.2611 10.9411 12.0443C12.1905 11.134 13.0003 9.66163 13.0003 8.00004C13.0003 5.57058 11.2676 3.54581 8.97055 3.09411L9.1384 3.26195C9.39875 3.5223 9.39875 3.94441 9.1384 4.20476C8.87805 4.46511 8.45594 4.46511 8.19559 4.20476L6.86225 2.87143C6.6019 2.61108 6.6019 2.18897 6.86225 1.92862L8.19559 0.595287Z" fill="#3E4517"/>
<path d="M4.27442 2.87817C4.57201 2.66136 4.98901 2.72684 5.20582 3.02443C5.42263 3.32201 5.35715 3.73901 5.05956 3.95582C3.81016 4.8661 3.00033 6.33847 3.00033 8.00007C3.00033 10.4295 4.73306 12.4543 7.03013 12.906L6.86225 12.7381C6.6019 12.4778 6.6019 12.0557 6.86225 11.7953C7.1226 11.535 7.54471 11.535 7.80506 11.7953L9.1384 13.1287C9.39875 13.389 9.39875 13.8111 9.1384 14.0715L7.80506 15.4048C7.54471 15.6651 7.1226 15.6651 6.86225 15.4048C6.6019 15.1444 6.6019 14.7223 6.86225 14.462L7.06015 14.2641C4.00821 13.8099 1.66699 11.1784 1.66699 8.00007C1.66699 5.89428 2.69538 4.02861 4.27442 2.87817Z" fill="#3E4517"/>
</svg>
