<svg width="16" height="16" viewBox="0 0 16 16" fill="none" xmlns="http://www.w3.org/2000/svg">
<path d="M5.17214 1.33337H5.99968C6.36787 1.33337 6.66634 1.63185 6.66634 2.00004C6.66634 2.36823 6.36787 2.66671 5.99968 2.66671H5.19968C4.62862 2.66671 4.24043 2.66723 3.94037 2.69174C3.64809 2.71562 3.49862 2.75891 3.39436 2.81203C3.14347 2.93986 2.9395 3.14384 2.81167 3.39472C2.75854 3.49899 2.71526 3.64846 2.69138 3.94073C2.66686 4.24079 2.66634 4.62899 2.66634 5.20004L2.66634 10.8C2.66634 11.3711 2.66686 11.7593 2.69138 12.0593C2.71526 12.3516 2.75854 12.5011 2.81167 12.6054C2.9395 12.8562 3.14347 13.0602 3.39435 13.188C3.49862 13.2412 3.64809 13.2845 3.94037 13.3083C4.24043 13.3329 4.62862 13.3334 5.19968 13.3334H5.99968C6.36787 13.3334 6.66634 13.6319 6.66634 14C6.66634 14.3682 6.36787 14.6667 5.99968 14.6667H5.17213C4.63549 14.6667 4.19258 14.6667 3.83179 14.6372C3.45706 14.6066 3.11259 14.5409 2.78903 14.3761C2.28727 14.1204 1.87932 13.7124 1.62366 13.2107C1.4588 12.8871 1.39309 12.5427 1.36247 12.1679C1.33299 11.8071 1.333 11.3642 1.33301 10.8276V5.17251C1.333 4.63588 1.33299 4.19295 1.36247 3.83216C1.39309 3.45743 1.4588 3.11296 1.62366 2.7894C1.87932 2.28763 2.28727 1.87969 2.78903 1.62402C3.11259 1.45916 3.45706 1.39345 3.83179 1.36284C4.19259 1.33336 4.6355 1.33337 5.17214 1.33337Z" fill="#3E4517"/>
<path d="M10.1949 4.1953C10.4553 3.93495 10.8774 3.93495 11.1377 4.1953L14.4711 7.52864C14.7314 7.78899 14.7314 8.2111 14.4711 8.47144L11.1377 11.8048C10.8774 12.0651 10.4553 12.0651 10.1949 11.8048C9.93459 11.5444 9.93459 11.1223 10.1949 10.862L12.3902 8.66671H5.99967C5.63148 8.66671 5.33301 8.36823 5.33301 8.00004C5.33301 7.63185 5.63148 7.33337 5.99967 7.33337H12.3902L10.1949 5.13811C9.93459 4.87776 9.93459 4.45565 10.1949 4.1953Z" fill="#3E4517"/>
</svg>
