<svg width="16" height="16" viewBox="0 0 16 16" fill="none" xmlns="http://www.w3.org/2000/svg">
<path fill-rule="evenodd" clip-rule="evenodd" d="M12.8577 10.6404C12.8184 10.4241 12.8449 10.201 12.9337 9.99996C13.0182 9.80278 13.1585 9.63461 13.3373 9.51616C13.5162 9.39771 13.7258 9.33415 13.9403 9.33329H14.0003C14.3539 9.33329 14.6931 9.19282 14.9431 8.94277C15.1932 8.69272 15.3337 8.35358 15.3337 7.99996C15.3337 7.64634 15.1932 7.3072 14.9431 7.05715C14.6931 6.8071 14.3539 6.66663 14.0003 6.66663H13.887C13.6725 6.66577 13.4629 6.6022 13.284 6.48375C13.1052 6.3653 12.9648 6.19714 12.8803 5.99996V5.94663C12.7916 5.74555 12.7651 5.5225 12.8043 5.30623C12.8435 5.08997 12.9466 4.89041 13.1003 4.73329L13.1403 4.69329C13.2643 4.56946 13.3626 4.42241 13.4297 4.26055C13.4968 4.09868 13.5314 3.92518 13.5314 3.74996C13.5314 3.57474 13.4968 3.40124 13.4297 3.23937C13.3626 3.07751 13.2643 2.93046 13.1403 2.80663C13.0165 2.68266 12.8694 2.58431 12.7076 2.51721C12.5457 2.45011 12.3722 2.41558 12.197 2.41558C12.0218 2.41558 11.8483 2.45011 11.6864 2.51721C11.5245 2.58431 11.3775 2.68266 11.2537 2.80663L11.2137 2.84663C11.0565 3.00032 10.857 3.10342 10.6407 3.14263C10.4245 3.18184 10.2014 3.15537 10.0003 3.06663C9.80315 2.98212 9.63498 2.8418 9.51653 2.66294C9.39808 2.48408 9.33451 2.27448 9.33366 2.05996V1.99996C9.33366 1.64634 9.19318 1.3072 8.94313 1.05715C8.69309 0.807102 8.35395 0.666626 8.00033 0.666626C7.6467 0.666626 7.30756 0.807102 7.05752 1.05715C6.80747 1.3072 6.66699 1.64634 6.66699 1.99996V2.11329C6.66614 2.32782 6.60257 2.53741 6.48412 2.71627C6.36567 2.89513 6.1975 3.03545 6.00033 3.11996H5.94699C5.74591 3.2087 5.52286 3.23517 5.3066 3.19596C5.09034 3.15675 4.89078 3.05365 4.73366 2.89996L4.69366 2.85996C4.56983 2.73599 4.42278 2.63765 4.26091 2.57055C4.09905 2.50345 3.92555 2.46891 3.75033 2.46891C3.5751 2.46891 3.4016 2.50345 3.23974 2.57055C3.07787 2.63765 2.93082 2.73599 2.80699 2.85996C2.68302 2.98379 2.58468 3.13084 2.51758 3.29271C2.45048 3.45457 2.41594 3.62807 2.41594 3.80329C2.41594 3.97851 2.45048 4.15202 2.51758 4.31388C2.58468 4.47574 2.68302 4.62279 2.80699 4.74663L2.84699 4.78663C3.00068 4.94375 3.10378 5.1433 3.143 5.35957C3.18221 5.57583 3.15574 5.79888 3.06699 5.99996C2.9908 6.20712 2.85405 6.38656 2.67452 6.51497C2.495 6.64337 2.28099 6.7148 2.06033 6.71996H2.00033C1.6467 6.71996 1.30756 6.86044 1.05752 7.11048C0.807468 7.36053 0.666992 7.69967 0.666992 8.05329C0.666992 8.40691 0.807468 8.74605 1.05752 8.9961C1.30756 9.24615 1.6467 9.38663 2.00033 9.38663H2.11366C2.32818 9.38748 2.53778 9.45105 2.71664 9.5695C2.8955 9.68795 3.03582 9.85611 3.12033 10.0533C3.20907 10.2544 3.23554 10.4774 3.19633 10.6937C3.15712 10.9099 3.05402 11.1095 2.90033 11.2666L2.86033 11.3066C2.73636 11.4305 2.63801 11.5775 2.57091 11.7394C2.50381 11.9012 2.46928 12.0747 2.46928 12.25C2.46928 12.4252 2.50381 12.5987 2.57091 12.7605C2.63801 12.9224 2.73636 13.0695 2.86033 13.1933C2.98416 13.3173 3.13121 13.4156 3.29307 13.4827C3.45494 13.5498 3.62844 13.5843 3.80366 13.5843C3.97888 13.5843 4.15238 13.5498 4.31425 13.4827C4.47611 13.4156 4.62316 13.3173 4.74699 13.1933L4.78699 13.1533C4.94411 12.9996 5.14367 12.8965 5.35993 12.8573C5.5762 12.8181 5.79925 12.8445 6.00033 12.9333C6.20748 13.0095 6.38693 13.1462 6.51533 13.3258C6.64374 13.5053 6.71516 13.7193 6.72032 13.94V14C6.72032 14.3536 6.8608 14.6927 7.11085 14.9428C7.3609 15.1928 7.70004 15.3333 8.05366 15.3333C8.40728 15.3333 8.74642 15.1928 8.99647 14.9428C9.24652 14.6927 9.38699 14.3536 9.38699 14V13.8866C9.38785 13.6721 9.45141 13.4625 9.56986 13.2836C9.68831 13.1048 9.85648 12.9645 10.0537 12.88C10.2547 12.7912 10.4778 12.7647 10.6941 12.804C10.9103 12.8432 11.1099 12.9463 11.267 13.1L11.307 13.14C11.4308 13.2639 11.5779 13.3623 11.7397 13.4294C11.9016 13.4965 12.0751 13.531 12.2503 13.531C12.4255 13.531 12.599 13.4965 12.7609 13.4294C12.9228 13.3623 13.0698 13.2639 13.1937 13.14C13.3176 13.0161 13.416 12.8691 13.4831 12.7072C13.5502 12.5453 13.5847 12.3718 13.5847 12.1966C13.5847 12.0214 13.5502 11.8479 13.4831 11.686C13.416 11.5242 13.3176 11.3771 13.1937 11.2533L13.1537 11.2133C13 11.0562 12.8969 10.8566 12.8577 10.6404ZM10.0003 7.99996C10.0003 9.10453 9.10489 9.99996 8.00033 9.99996C6.89576 9.99996 6.00033 9.10453 6.00033 7.99996C6.00033 6.89539 6.89576 5.99996 8.00033 5.99996C9.10489 5.99996 10.0003 6.89539 10.0003 7.99996Z" fill="#3E4517"/>
</svg>
